<svg [class]="class" [style.width]="size" [style.height]="size" viewBox="0 0 24 24" xmlns="http://www.w3.org/2000/svg">
  <g
     inkscape:label="Layer 1"
     inkscape:groupmode="layer"
     id="layer1">
    <g
       id="g7039"
       transform="matrix(0.04786106,0,0,0.04781682,-2.6726299,-1.8223314)"
       inkscape:export-filename="wheel.svg"
       inkscape:export-xdpi="96"
       inkscape:export-ydpi="96">
      <path
         id="path2507"
         d="m 306.80223,39.316774 v 0.0625 l -20.8125,19.71875 1.875,21.0625 c -42.72301,3.96 -81.73615,20.810416 -113.09375,46.624996 l -14.0625,-16.84375 -28.6875,0.78125 -0.0312,-0.0625 v 0.0625 0.0312 l -0.78125,28.65625 16.65625,13.9375 c -27.23788,32.20551 -44.90282,72.7526 -48.593752,117.25 l -22.4375,-2 -19.71875,20.8125 h -0.0625 l 0.03125,0.0312 -0.03125,0.0312 h 0.0625 l 19.71875,20.8125 22.6875,-2.03125 c 4.188782,43.60883 21.820072,83.30254 48.687502,114.90625 l -18,15.03125 0.78125,28.65625 -0.0312,0.0625 h 0.0312 0.0312 l 28.6875,0.75 15.21875,-18.21875 c 31.37659,25.77089 70.39793,42.58197 113.125,46.5 l -2.0625,23.09375 20.8125,19.71875 v 0.0625 l 0.0312,-0.0312 0.0312,0.0312 v -0.0625 l 20.8125,-19.71875 -2.0625,-23 c 42.99139,-3.73629 82.27081,-20.5316 113.84375,-46.375 l 14.5,17.34375 28.6875,-0.75 h 0.0312 0.0312 l -0.0312,-0.0625 0.78125,-28.65625 -17.0625,-14.28125 c 26.87612,-31.5801 44.53069,-71.25681 48.75,-114.84375 l 21.15625,1.875 19.71875,-20.8125 h 0.0625 l -0.0312,-0.0312 0.0312,-0.0312 h -0.0625 l -19.71875,-20.8125 -20.9375,1.875 c -3.69345,-44.17709 -21.16197,-84.4558 -48.09375,-116.53125 l 16.1875,-13.53125 -0.78125,-28.65625 v -0.0312 -0.0625 l -0.0312,0.0625 -28.6875,-0.78125 -13.59375,16.25 C 408.68578,100.96055 369.12888,83.904374 325.80223,80.098024 l 1.875,-21 -20.8125,-19.71875 v -0.0625 l -0.0312,0.03125 z m 16,74.343746 c 36.28014,3.18129 69.39308,17.46246 95.9375,39.40625 l -59.21875,70.8125 c -12.49675,-10.17945 -27.9676,-16.84836 -44.90625,-18.46875 z m -31.9375,0.0937 8.1875,91.625 c -16.53098,1.45855 -31.67515,7.69359 -44.0625,17.34375 l -58.5625,-70.0625 c 26.21338,-21.50815 58.77852,-35.57269 94.4375,-38.90625 z m -117.09375,61.25 69.84375,58.40625 c -11.57559,13.08696 -19.10873,29.80137 -20.71875,48.21875 l -90,-8.03125 c 3.06859,-37.42898 17.94875,-71.53188 40.875,-98.59375 z m 267.625,0.5625 c 22.62771,26.9399 37.3053,60.7886 40.375,97.90625 l -91.5625,8.15625 c -1.55425,-17.78443 -8.68201,-33.96729 -19.59375,-46.84375 z m -136.15625,49.125 c 0.1363,-0.003 0.26975,0.003 0.40625,0 0.41437,-0.008 0.83376,0 1.25,0 35.51939,2e-5 64.34375,28.82436 64.34375,64.34375 10e-6,35.51939 -28.82436,64.34375 -64.34375,64.34375 -35.51939,-2e-5 -64.34375,-28.82436 -64.34375,-64.34375 -1e-5,-34.96603 27.93209,-63.46475 62.6875,-64.34375 z m -82.28125,72.5625 c 1.72337,17.74687 8.9665,33.87811 20,46.65625 l -68.875,57.59375 c -22.55429,-26.46193 -37.36957,-59.7128 -40.9375,-96.25 z m 167.15625,0 91.40625,8.15625 c -3.59961,36.52499 -18.42673,69.77713 -41,96.21875 l -69.84375,-58.40625 c 10.71351,-12.66871 17.74314,-28.5346 19.4375,-45.96875 z m -30.53125,56.875 58.25,69.65625 c -26.43631,21.556 -59.27569,35.54362 -95.21875,38.65625 l -8,-89.78125 c 16.96968,-1.62335 32.46005,-8.32023 44.96875,-18.53125 z m -105.40625,0.5625 c 12.53345,10.01506 27.9791,16.51006 44.875,18 l -8,89.65625 c -35.67749,-3.29531 -68.26141,-17.29737 -94.5,-38.78125 z"
         style="display:inline;fill:#f08618;fill-opacity:1;fill-rule:evenodd;stroke:#000000;stroke-width:1px;stroke-linecap:butt;stroke-linejoin:miter;stroke-opacity:1" />
      <g
         transform="matrix(0.908209,0,0,0.908209,-23.17143,16.24009)"
         id="g7028">
        <circle
           style="fill:#f08618;fill-opacity:1;fill-rule:evenodd;stroke:#000000;stroke-width:1px;stroke-linecap:butt;stroke-linejoin:miter;stroke-opacity:1"
           id="path2518"
           transform="matrix(0.30873,0,0,0.30873,239.3721,87.64056)"
           cx="403.05087"
           cy="687.84863"
           r="64.346718" />
        <path
           style="fill:#f08618;fill-opacity:1;fill-rule:evenodd;stroke:#000000;stroke-width:1px;stroke-linecap:butt;stroke-linejoin:miter;stroke-opacity:1"
           d="m 359.27702,271.74266 -12.70711,5.25 -23.33452,-23.33452 36.04163,-14.29048 z"
           id="path4340" />
        <path
           style="fill:#f08618;fill-opacity:1;fill-rule:evenodd;stroke:#000000;stroke-width:1px;stroke-linecap:butt;stroke-linejoin:miter;stroke-opacity:1"
           d="M 381.44759,277.32544 368.75,272.05246 v -32.99999 l 35.59017,15.38038 z"
           id="path5220" />
        <path
           style="fill:#f08618;fill-opacity:1;fill-rule:evenodd;stroke:#000000;stroke-width:1px;stroke-linecap:butt;stroke-linejoin:miter;stroke-opacity:1"
           d="m 340.98479,282.66459 -5.27297,12.69759 h -33 L 318.09221,259.772 Z"
           id="path5222" />
        <path
           style="fill:#f08618;fill-opacity:1;fill-rule:evenodd;stroke:#000000;stroke-width:1px;stroke-linecap:butt;stroke-linejoin:miter;stroke-opacity:1"
           d="m 335.79952,305.4406 5.25,12.7071 -23.33452,23.33453 -14.29048,-36.04164 z"
           id="path5224" />
        <path
           style="fill:#f08618;fill-opacity:1;fill-rule:evenodd;stroke:#000000;stroke-width:1px;stroke-linecap:butt;stroke-linejoin:miter;stroke-opacity:1"
           d="m 346.62452,323.03489 12.69759,5.27296 v 33.00001 l -35.59018,-15.3804 z"
           id="path5226" />
        <path
           style="fill:#f08618;fill-opacity:1;fill-rule:evenodd;stroke:#000000;stroke-width:1px;stroke-linecap:butt;stroke-linejoin:miter;stroke-opacity:1"
           d="m 368.22496,328.23165 12.7071,-5.25001 23.33453,23.33453 -36.04165,14.29048 z"
           id="path5228" />
        <path
           style="fill:#f08618;fill-opacity:1;fill-rule:evenodd;stroke:#000000;stroke-width:1px;stroke-linecap:butt;stroke-linejoin:miter;stroke-opacity:1"
           d="m 386.69425,318.39517 5.27296,-12.6976 h 33.00001 l -15.3804,35.59019 z"
           id="path5230" />
        <path
           style="fill:#f08618;fill-opacity:1;fill-rule:evenodd;stroke:#000000;stroke-width:1px;stroke-linecap:butt;stroke-linejoin:miter;stroke-opacity:1"
           d="m 392.391,295.91973 -5.24999,-12.70711 23.33452,-23.33452 14.29048,36.04162 z"
           id="path5232" />
      </g>
    </g>
  </g>
</svg>
