<svg class="animated" id="freepik_stories-instruction-manual" xmlns="http://www.w3.org/2000/svg" viewBox="0 0 500 500" version="1.1" xmlns:xlink="http://www.w3.org/1999/xlink" xmlns:svgjs="http://svgjs.com/svgjs"><style>svg#freepik_stories-instruction-manual:not(.animated) .animable {opacity: 0;}svg#freepik_stories-instruction-manual.animated #freepik--background-complete--inject-13 {animation: 1s 1 forwards cubic-bezier(.36,-0.01,.5,1.38) slideRight;animation-delay: 0s;}svg#freepik_stories-instruction-manual.animated #freepik--Shadow--inject-13 {animation: 1s 1 forwards cubic-bezier(.36,-0.01,.5,1.38) slideDown;animation-delay: 0s;}svg#freepik_stories-instruction-manual.animated #freepik--Plant--inject-13 {animation: 1s 1 forwards cubic-bezier(.36,-0.01,.5,1.38) slideRight;animation-delay: 0s;}svg#freepik_stories-instruction-manual.animated #freepik--Floor--inject-13 {animation: 1s 1 forwards cubic-bezier(.36,-0.01,.5,1.38) lightSpeedRight;animation-delay: 0s;}svg#freepik_stories-instruction-manual.animated #freepik--Manual--inject-13 {animation: 1s 1 forwards cubic-bezier(.36,-0.01,.5,1.38) zoomIn;animation-delay: 0s;}svg#freepik_stories-instruction-manual.animated #freepik--Character--inject-13 {animation: 1s 1 forwards cubic-bezier(.36,-0.01,.5,1.38) fadeIn;animation-delay: 0s;}            @keyframes slideRight {                0% {                    opacity: 0;                    transform: translateX(30px);                }                100% {                    opacity: 1;                    transform: translateX(0);                }            }                    @keyframes slideDown {                0% {                    opacity: 0;                    transform: translateY(-30px);                }                100% {                    opacity: 1;                    transform: translateY(0);                }            }                    @keyframes lightSpeedRight {              from {                transform: translate3d(50%, 0, 0) skewX(-20deg);                opacity: 0;              }              60% {                transform: skewX(10deg);                opacity: 1;              }              80% {                transform: skewX(-2deg);              }              to {                opacity: 1;                transform: translate3d(0, 0, 0);              }            }                    @keyframes zoomIn {                0% {                    opacity: 0;                    transform: scale(0.5);                }                100% {                    opacity: 1;                    transform: scale(1);                }            }                    @keyframes fadeIn {                0% {                    opacity: 0;                }                100% {                    opacity: 1;                }            }        .animator-hidden { display: none; }</style><g id="freepik--background-complete--inject-13" class="animable" style="transform-origin: 246.9px 211.615px;"><path d="M412.41,62.85l13.12-.28,6.66-.11c2.23-.05,4.47,0,6.7-.06h.44v.45L439.39,74v.5h-.5l-13.24-.07c-4.42,0-8.83-.11-13.24-.16h-.28V74c0-1.9.09-3.79.13-5.66Zm0,0,.14,5.65c0,1.86.11,3.7.13,5.54l-.27-.28c4.41-.05,8.82-.16,13.24-.16l13.24-.06-.5.5.05-11.19.45.44c-2.18,0-4.36,0-6.55,0l-6.58-.11Z" style="fill: rgb(235, 235, 235); transform-origin: 425.76px 68.45px;" id="elznnc2ieexe" class="animable"></path><path d="M77.93,270.93l13.12-.28,6.66-.11c2.23,0,4.46,0,6.7-.05h.44v.45l.06,11.19v.51h-.5l-13.24-.06c-4.42,0-8.83-.11-13.24-.16h-.28v-.27c0-1.9.09-3.78.13-5.65Zm0,0,.14,5.66c0,1.86.11,3.7.13,5.53l-.27-.27c4.41-.05,8.82-.16,13.24-.16l13.24-.07-.5.5,0-11.19.45.45c-2.19,0-4.36,0-6.55-.06l-6.58-.11Z" style="fill: rgb(235, 235, 235); transform-origin: 91.28px 276.565px;" id="eleswvrfoo6ed" class="animable"></path><path d="M427.18,48.74l13.12-.28,6.66-.11c2.23-.05,4.47,0,6.7-.06h.44v.45l.06,11.19v.5h-.5l-13.24-.07c-4.41,0-8.83-.11-13.24-.16h-.28v-.27c0-1.9.08-3.79.13-5.66Zm0,0,.14,5.65c.05,1.86.11,3.71.13,5.54l-.27-.28c4.41,0,8.83-.15,13.24-.16l13.24-.06-.5.5,0-11.19.45.44c-2.18,0-4.36,0-6.55,0L440.53,49Z" style="fill: rgb(235, 235, 235); transform-origin: 440.53px 54.36px;" id="elf9bb544khf8" class="animable"></path><path d="M341.89,216.53l13.13-.28,6.66-.11c2.22,0,4.46,0,6.69-.06h.45v.45l.05,11.19v.5h-.51l-13.24-.06c-4.41,0-8.82-.12-13.24-.17h-.27v-.27c0-1.9.09-3.79.13-5.65Zm0,0,.14,5.65c.05,1.87.12,3.71.14,5.54l-.28-.27c4.42,0,8.83-.16,13.24-.17l13.24-.06-.5.5.06-11.19.44.45c-2.18,0-4.35,0-6.54-.06l-6.58-.11Z" style="fill: rgb(235, 235, 235); transform-origin: 355.24px 222.15px;" id="elnbihgrll14e" class="animable"></path><path d="M356.66,202.42l13.13-.28,6.66-.11c2.23-.05,4.46,0,6.69-.06h.45v.45l.05,11.19v.5h-.51l-13.24-.06c-4.41,0-8.82-.12-13.24-.17h-.27v-.27c0-1.9.09-3.79.13-5.65Zm0,0,.15,5.65c0,1.87.11,3.71.13,5.54l-.28-.27c4.42-.05,8.83-.16,13.24-.17l13.24-.06-.49.5.05-11.19.44.45c-2.18,0-4.35,0-6.54-.06L370,202.7Z" style="fill: rgb(235, 235, 235); transform-origin: 370.01px 208.04px;" id="el869qc06xqog" class="animable"></path><path d="M371.38,216.53l13.12-.28,6.66-.11c2.23,0,4.47,0,6.7-.06h.44v.45l.06,11.19v.5h-.5l-13.24-.06c-4.42,0-8.83-.12-13.24-.17h-.28v-.27c0-1.9.08-3.79.13-5.65Zm0,0,.14,5.65c.05,1.87.11,3.71.13,5.54l-.27-.27c4.41,0,8.82-.16,13.24-.17l13.24-.06-.5.5.05-11.19.45.45c-2.18,0-4.36,0-6.55-.06l-6.58-.11Z" style="fill: rgb(235, 235, 235); transform-origin: 384.73px 222.15px;" id="ela9yoycsnnpw" class="animable"></path><path d="M46.34,48.74l13.13-.28,6.66-.11c2.22-.05,4.46,0,6.69-.06h.45v.45l0,11.19v.5h-.5l-13.24-.07c-4.41,0-8.83-.11-13.24-.16h-.27v-.27c0-1.9.08-3.79.13-5.66Zm0,0,.14,5.65c.05,1.86.12,3.71.13,5.54l-.27-.28c4.41,0,8.83-.15,13.24-.16l13.24-.06-.5.5.06-11.19.44.44c-2.18,0-4.36,0-6.54,0L59.7,49Z" style="fill: rgb(235, 235, 235); transform-origin: 59.645px 54.36px;" id="elzoih4ckj41b" class="animable"></path><path d="M61.11,351.85l13.13-.28,6.66-.11c2.22,0,4.46,0,6.69-.06H88v.45l0,11.19v.5h-.51l-13.24-.07c-4.41,0-8.82-.11-13.24-.16h-.27V363c0-1.9.09-3.79.13-5.66Zm0,0,.14,5.65c0,1.86.12,3.71.14,5.54l-.28-.28c4.42-.05,8.83-.15,13.24-.16l13.24-.06-.5.5.06-11.19.44.44c-2.18,0-4.35,0-6.54-.05l-6.58-.11Z" style="fill: rgb(235, 235, 235); transform-origin: 74.37px 357.47px;" id="elziuaz4m382s" class="animable"></path><path d="M46.34,337.74l13.13-.28,6.66-.11c2.22-.05,4.46,0,6.69-.06h.45v.45l0,11.19v.5h-.5l-13.24-.07c-4.41,0-8.83-.11-13.24-.16h-.27v-.27c0-1.9.08-3.79.13-5.66Zm0,0,.14,5.65c.05,1.86.12,3.71.13,5.54l-.27-.28c4.41,0,8.83-.15,13.24-.16l13.24-.06-.5.5.06-11.19.44.44c-2.18,0-4.36,0-6.54-.05L59.7,338Z" style="fill: rgb(235, 235, 235); transform-origin: 59.645px 343.36px;" id="elfoqekn4lr56" class="animable"></path><path d="M412.41,351.85l13.12-.28,6.66-.11c2.23,0,4.47,0,6.7-.06h.44v.45l.06,11.19v.5h-.5l-13.24-.07c-4.42,0-8.83-.11-13.24-.16h-.28V363c0-1.9.09-3.79.13-5.66Zm0,0,.14,5.65c0,1.86.11,3.71.13,5.54l-.27-.28c4.41-.05,8.82-.15,13.24-.16l13.24-.06-.5.5.05-11.19.45.44c-2.18,0-4.36,0-6.55-.05l-6.58-.11Z" style="fill: rgb(235, 235, 235); transform-origin: 425.76px 357.47px;" id="el9x1590k299g" class="animable"></path><rect x="72.94" width="1" height="80.12" style="fill: rgb(199, 199, 199); transform-origin: 73.44px 40.06px;" id="elt8ic29uaimk" class="animable"></rect><polygon points="107.32 112.79 104.6 118.78 42.27 118.78 39.55 112.79 66.09 94.42 80.79 94.42 107.32 112.79" style="fill: rgb(235, 235, 235); transform-origin: 73.435px 106.6px;" id="ellhd0ghtajr" class="animable"></polygon><polygon points="82.63 76.72 80.79 94.42 66.09 94.42 64.24 76.72 82.63 76.72" style="fill: rgb(219, 219, 219); transform-origin: 73.435px 85.57px;" id="el455zp5qwuqv" class="animable"></polygon><polygon points="107.32 112.79 104.6 118.78 42.26 118.78 39.55 112.79 107.32 112.79" style="fill: rgb(219, 219, 219); transform-origin: 73.435px 115.785px;" id="elf0pwde5cr7" class="animable"></polygon><rect x="141.26" width="1" height="45.21" style="fill: rgb(199, 199, 199); transform-origin: 141.76px 22.605px;" id="elolsx692zho" class="animable"></rect><polygon points="175.65 77.88 172.92 83.87 110.59 83.87 107.87 77.88 134.41 59.51 149.11 59.51 175.65 77.88" style="fill: rgb(235, 235, 235); transform-origin: 141.76px 71.69px;" id="ela8ujnzpc9cu" class="animable"></polygon><polygon points="150.95 41.81 149.11 59.51 134.41 59.51 132.57 41.81 150.95 41.81" style="fill: rgb(219, 219, 219); transform-origin: 141.76px 50.66px;" id="elcn6hp6zvm2w" class="animable"></polygon><polygon points="175.65 77.88 172.92 83.87 110.59 83.87 107.87 77.88 175.65 77.88" style="fill: rgb(219, 219, 219); transform-origin: 141.76px 80.875px;" id="elqary29buv9m" class="animable"></polygon><g id="el9nppldaz9j"><rect x="331.9" y="91.61" width="122.35" height="7.26" style="fill: rgb(235, 235, 235); transform-origin: 393.075px 95.24px; transform: rotate(180deg);" class="animable"></rect></g><rect x="437.69" y="98.88" width="7.27" height="24.03" style="fill: rgb(235, 235, 235); transform-origin: 441.325px 110.895px;" id="elk3jdayqlsu" class="animable"></rect><rect x="437.69" y="98.88" width="7.27" height="7.43" style="fill: rgb(219, 219, 219); transform-origin: 441.325px 102.595px;" id="el6akacrdm5pn" class="animable"></rect><rect x="341.18" y="98.88" width="7.27" height="24.03" style="fill: rgb(235, 235, 235); transform-origin: 344.815px 110.895px;" id="elsod2bekpyio" class="animable"></rect><rect x="341.18" y="98.88" width="7.27" height="7.43" style="fill: rgb(219, 219, 219); transform-origin: 344.815px 102.595px;" id="elybufvvq4g5l" class="animable"></rect><g id="el96obnne9j7q"><rect x="394.34" y="62.63" width="46.3" height="11.66" style="fill: rgb(199, 199, 199); transform-origin: 417.49px 68.46px; transform: rotate(90deg);" class="animable"></rect></g><g id="ell8jq6s0ra9"><rect x="414.95" y="39.55" width="5.09" height="11.66" style="fill: rgb(219, 219, 219); transform-origin: 417.495px 45.38px; transform: rotate(90deg);" class="animable"></rect></g><g id="eldhy9fqc16j6"><rect x="416.55" y="49.56" width="1.89" height="11.66" style="fill: rgb(219, 219, 219); transform-origin: 417.495px 55.39px; transform: rotate(90deg);" class="animable"></rect></g><g id="eldqcpcb7028k"><rect x="414.22" y="76.44" width="5.09" height="13.11" style="fill: rgb(219, 219, 219); transform-origin: 416.765px 82.995px; transform: rotate(90deg);" class="animable"></rect></g><g id="elcubduy7cwxf"><rect x="380.59" y="60.53" width="54.01" height="8.15" style="fill: rgb(219, 219, 219); transform-origin: 407.595px 64.605px; transform: rotate(90deg);" class="animable"></rect></g><g id="elwtcs6ole2tp"><rect x="397.24" y="50.62" width="20.77" height="4.89" style="fill: rgb(235, 235, 235); transform-origin: 407.625px 53.065px; transform: rotate(90deg);" class="animable"></rect></g><g id="elva26vo96du"><rect x="340.61" y="65.66" width="54.01" height="8.15" style="fill: rgb(199, 199, 199); transform-origin: 367.615px 69.735px; transform: rotate(135.33deg);" class="animable"></rect></g><g id="elhp5bsnf9btr"><rect x="354.4" y="70.05" width="20.77" height="4.89" style="fill: rgb(219, 219, 219); transform-origin: 364.785px 72.495px; transform: rotate(135.33deg);" class="animable"></rect></g><g id="elup6xdwu7hm"><rect x="376.09" y="64.19" width="41.02" height="13.84" style="fill: rgb(166, 166, 166); transform-origin: 396.6px 71.11px; transform: rotate(90deg);" class="animable"></rect></g><g id="elk0tuaeeo6o"><rect x="394.69" y="78.44" width="3.82" height="13.84" style="fill: rgb(199, 199, 199); transform-origin: 396.6px 85.36px; transform: rotate(90deg);" class="animable"></rect></g><g id="el18dz5mclm1e"><rect x="395.86" y="73.28" width="1.48" height="13.84" style="fill: rgb(199, 199, 199); transform-origin: 396.6px 80.2px; transform: rotate(90deg);" class="animable"></rect></g><g id="el4vm4ffwg7du"><rect x="408.83" y="67.56" width="38.55" height="9.56" style="fill: rgb(166, 166, 166); transform-origin: 428.105px 72.34px; transform: rotate(90deg);" class="animable"></rect></g><g id="el2yky1k2nx5q"><rect x="426.31" y="80.96" width="3.59" height="9.56" style="fill: rgb(199, 199, 199); transform-origin: 428.105px 85.74px; transform: rotate(90deg);" class="animable"></rect></g><g id="el6cycw18twvi"><rect x="426.31" y="58.03" width="3.59" height="9.56" style="fill: rgb(199, 199, 199); transform-origin: 428.105px 62.81px; transform: rotate(90deg);" class="animable"></rect></g><g id="elkhg4oixu49i"><rect x="427.41" y="62.98" width="1.39" height="9.56" style="fill: rgb(199, 199, 199); transform-origin: 428.105px 67.76px; transform: rotate(90deg);" class="animable"></rect></g><rect x="348.68" y="137.84" width="56.6" height="68.65" style="fill: rgb(235, 235, 235); transform-origin: 376.98px 172.165px;" id="elicmj3rq4la" class="animable"></rect><rect x="355.15" y="144.11" width="43.66" height="56.12" style="fill: rgb(255, 255, 255); transform-origin: 376.98px 172.17px;" id="elmsdg3oi07il" class="animable"></rect><rect x="355.15" y="144.11" width="1.7" height="56.12" style="fill: rgb(219, 219, 219); transform-origin: 356px 172.17px;" id="el8aw4pymkgao" class="animable"></rect><rect x="405.28" y="137.84" width="1.7" height="68.65" style="fill: rgb(219, 219, 219); transform-origin: 406.13px 172.165px;" id="eltf8zsife02s" class="animable"></rect><rect x="369.78" y="151.84" width="10.3" height="30.67" style="fill: rgb(219, 219, 219); transform-origin: 374.93px 167.175px;" id="elilnzygalm6b" class="animable"></rect><path d="M393.24,188.26H364.79v-16h28.45Zm-27.45-1h26.45v-14H365.79Z" style="fill: rgb(235, 235, 235); transform-origin: 379.015px 180.26px;" id="el35y90orirp" class="animable"></path><rect x="395.95" y="213.82" width="56.6" height="68.65" style="fill: rgb(235, 235, 235); transform-origin: 424.25px 248.145px;" id="eljem37d55lw" class="animable"></rect><rect x="402.41" y="220.09" width="43.66" height="56.12" style="fill: rgb(255, 255, 255); transform-origin: 424.24px 248.15px;" id="elsybrnvpm0ql" class="animable"></rect><rect x="402.41" y="220.09" width="1.7" height="56.12" style="fill: rgb(219, 219, 219); transform-origin: 403.26px 248.15px;" id="elfh73axcqxwg" class="animable"></rect><rect x="452.54" y="213.82" width="1.7" height="68.65" style="fill: rgb(219, 219, 219); transform-origin: 453.39px 248.145px;" id="el0ztrp4p5dcv" class="animable"></rect><rect x="420.02" y="234.59" width="8.82" height="22.3" style="fill: rgb(235, 235, 235); transform-origin: 424.43px 245.74px;" id="eld06pei7fqq9" class="animable"></rect><path d="M438.62,264H413.93V247.65h24.69Zm-23.69-1h22.69V248.65H414.93Z" style="fill: rgb(219, 219, 219); transform-origin: 426.275px 255.825px;" id="elw34u1igivl" class="animable"></path><path d="M46.08,252.52V423.23h103.2V252.52Zm93.83,107.71H55.45V315.79h84.46Zm0-55H55.45V260.77h84.46Z" style="fill: rgb(219, 219, 219); transform-origin: 97.68px 337.875px;" id="ellwm6dbt9v1n" class="animable"></path><rect x="149.28" y="252.52" width="46.66" height="170.7" style="fill: rgb(235, 235, 235); transform-origin: 172.61px 337.87px;" id="ellfzmtj80q1" class="animable"></rect><rect x="55.46" y="260.76" width="20.07" height="44.44" style="fill: rgb(235, 235, 235); transform-origin: 65.495px 282.98px;" id="el0bwztiz56d95" class="animable"></rect><path d="M140.16,412.76H55.73V369.89h84.43Zm-83.93-.5h83.43V370.39H56.23Z" style="fill: rgb(235, 235, 235); transform-origin: 97.945px 391.325px;" id="el4xshfdmx9ua" class="animable"></path><rect x="89.61" y="382.06" width="16.67" height="6.09" style="fill: rgb(235, 235, 235); transform-origin: 97.945px 385.105px;" id="el8btcvavitrr" class="animable"></rect><rect x="55.46" y="315.79" width="20.07" height="44.44" style="fill: rgb(235, 235, 235); transform-origin: 65.495px 338.01px;" id="ela15pe1nnqp" class="animable"></rect><g id="elva31k0z0jx"><rect x="100.81" y="332.68" width="40.97" height="14.12" style="fill: rgb(166, 166, 166); transform-origin: 121.295px 339.74px; transform: rotate(90deg);" class="animable"></rect></g><g id="elmxdy4yijz7g"><rect x="116.88" y="342.17" width="8.84" height="14.12" style="fill: rgb(219, 219, 219); transform-origin: 121.3px 349.23px; transform: rotate(90deg);" class="animable"></rect></g><g id="el9om7mmhgl1"><rect x="118.68" y="328.01" width="5.24" height="14.12" style="fill: rgb(219, 219, 219); transform-origin: 121.3px 335.07px; transform: rotate(90deg);" class="animable"></rect></g><rect x="121.25" y="218.19" width="35.68" height="34.29" style="fill: rgb(235, 235, 235); transform-origin: 139.09px 235.335px;" id="el6s07i7r18e" class="animable"></rect><rect x="156.94" y="218.19" width="13.56" height="34.29" style="fill: rgb(199, 199, 199); transform-origin: 163.72px 235.335px;" id="eldet6xiu7p6" class="animable"></rect><polygon points="121.25 235.33 156.94 235.33 129.07 236.21 121.25 235.33" style="fill: rgb(199, 199, 199); transform-origin: 139.095px 235.77px;" id="elhg9wdrubfr5" class="animable"></polygon><polygon points="156.94 248.33 121.25 248.33 149.12 249.22 156.94 248.33" style="fill: rgb(199, 199, 199); transform-origin: 139.095px 248.775px;" id="elx0u4banof2d" class="animable"></polygon><polygon points="121.25 225.75 143.85 225.75 123.76 226.47 121.25 225.75" style="fill: rgb(199, 199, 199); transform-origin: 132.55px 226.11px;" id="elm3pvxn2nu6a" class="animable"></polygon><polygon points="156.94 243.28 134.33 243.28 154.43 244.01 156.94 243.28" style="fill: rgb(199, 199, 199); transform-origin: 145.635px 243.645px;" id="elot4e9a72dwo" class="animable"></polygon><polygon points="129.81 221.93 155.31 221.93 151.06 222.36 129.81 221.93" style="fill: rgb(199, 199, 199); transform-origin: 142.56px 222.145px;" id="el8szcr9bxkn9" class="animable"></polygon><polygon points="124.72 239.01 150.21 239.01 145.97 239.44 124.72 239.01" style="fill: rgb(199, 199, 199); transform-origin: 137.465px 239.225px;" id="elyi7soh0cqzo" class="animable"></polygon><polygon points="140.4 229.01 156.94 229.01 159.89 230.16 140.4 229.01" style="fill: rgb(235, 235, 235); transform-origin: 150.145px 229.585px;" id="el66f93j3rleg" class="animable"></polygon><polygon points="116.7 229.01 133.23 229.01 136.19 230.16 116.7 229.01" style="fill: rgb(235, 235, 235); transform-origin: 126.445px 229.585px;" id="el5onl55lbb9" class="animable"></polygon><polygon points="137.92 244.42 121.38 244.42 118.42 245.57 137.92 244.42" style="fill: rgb(235, 235, 235); transform-origin: 128.17px 244.995px;" id="el63z0de65l1h" class="animable"></polygon><polygon points="156.94 240.51 170.21 240.51 173.17 241.66 156.94 240.51" style="fill: rgb(199, 199, 199); transform-origin: 165.055px 241.085px;" id="elvv2oacazvzq" class="animable"></polygon><polygon points="161.57 235.33 171.87 235.33 170.5 234.39 161.57 235.33" style="fill: rgb(199, 199, 199); transform-origin: 166.72px 234.86px;" id="elcil2cgtah28" class="animable"></polygon><rect x="80.08" y="270.92" width="35.68" height="34.29" style="fill: rgb(235, 235, 235); transform-origin: 97.92px 288.065px;" id="eldon8hg7qjmg" class="animable"></rect><rect x="115.76" y="270.92" width="13.56" height="34.29" style="fill: rgb(199, 199, 199); transform-origin: 122.54px 288.065px;" id="el8586mbltcgv" class="animable"></rect><polygon points="80.08 288.06 115.76 288.06 87.9 288.94 80.08 288.06" style="fill: rgb(199, 199, 199); transform-origin: 97.92px 288.5px;" id="elbc5jtepz1v" class="animable"></polygon><polygon points="115.76 301.06 80.08 301.06 107.95 301.94 115.76 301.06" style="fill: rgb(199, 199, 199); transform-origin: 97.92px 301.5px;" id="el84qw6gvnnp8" class="animable"></polygon><polygon points="80.08 278.48 102.68 278.48 82.59 279.2 80.08 278.48" style="fill: rgb(199, 199, 199); transform-origin: 91.38px 278.84px;" id="el3cslo18o5rb" class="animable"></polygon><polygon points="115.76 296.02 93.16 296.02 113.25 296.74 115.76 296.02" style="fill: rgb(199, 199, 199); transform-origin: 104.46px 296.38px;" id="el3xrbnhbhxxa" class="animable"></polygon><polygon points="88.64 274.66 114.13 274.66 109.88 275.09 88.64 274.66" style="fill: rgb(199, 199, 199); transform-origin: 101.385px 274.875px;" id="el4eslj398yk8" class="animable"></polygon><polygon points="83.55 291.74 109.04 291.74 104.79 292.17 83.55 291.74" style="fill: rgb(199, 199, 199); transform-origin: 96.295px 291.955px;" id="el4sutht9tjha" class="animable"></polygon><polygon points="99.23 281.74 115.76 281.74 118.72 282.89 99.23 281.74" style="fill: rgb(235, 235, 235); transform-origin: 108.975px 282.315px;" id="elc4qn2uhkh6h" class="animable"></polygon><polygon points="75.53 281.74 92.06 281.74 95.02 282.89 75.53 281.74" style="fill: rgb(235, 235, 235); transform-origin: 85.275px 282.315px;" id="elntzkbg5bsca" class="animable"></polygon><polygon points="96.74 297.15 80.21 297.15 77.25 298.31 96.74 297.15" style="fill: rgb(235, 235, 235); transform-origin: 86.995px 297.73px;" id="elgo0fk8livwg" class="animable"></polygon><polygon points="115.76 293.24 129.04 293.24 132 294.39 115.76 293.24" style="fill: rgb(199, 199, 199); transform-origin: 123.88px 293.815px;" id="elxjvr180znpl" class="animable"></polygon><polygon points="120.4 288.06 130.69 288.06 129.32 287.12 120.4 288.06" style="fill: rgb(199, 199, 199); transform-origin: 125.545px 287.59px;" id="el8zxk8cvx8lx" class="animable"></polygon><rect x="128.36" y="316.52" width="11.55" height="43.71" style="fill: rgb(235, 235, 235); transform-origin: 134.135px 338.375px;" id="elofln8hg5f3g" class="animable"></rect><path d="M134.13,325.14a2.41,2.41,0,1,1,2.41-2.4A2.41,2.41,0,0,1,134.13,325.14Z" style="fill: rgb(255, 255, 255); transform-origin: 134.13px 322.73px;" id="eliqj0lfogbr" class="animable"></path><path d="M134.13,324.11a1.38,1.38,0,0,1,0-2.75,1.38,1.38,0,1,1,0,2.75Z" style="fill: rgb(166, 166, 166); transform-origin: 134.247px 322.735px;" id="elrh00u1m7oa" class="animable"></path><g id="eldyipdji5vch"><rect x="128.82" y="342.25" width="10.63" height="11.55" style="fill: rgb(255, 255, 255); transform-origin: 134.135px 348.025px; transform: rotate(90deg);" class="animable"></rect></g><rect x="70.53" y="351.2" width="43.71" height="9.09" style="fill: rgb(199, 199, 199); transform-origin: 92.385px 355.745px;" id="eleibo92e05lb" class="animable"></rect><path d="M105.62,355.75a2.41,2.41,0,1,1,2.4,2.4A2.4,2.4,0,0,1,105.62,355.75Z" style="fill: rgb(255, 255, 255); transform-origin: 108.03px 355.74px;" id="ellchhms8h4ch" class="animable"></path><path d="M106.65,355.75a1.38,1.38,0,1,1,1.37,1.37A1.37,1.37,0,0,1,106.65,355.75Z" style="fill: rgb(166, 166, 166); transform-origin: 108.03px 355.74px;" id="el0k4d0214wc3s" class="animable"></path><g id="elrpgrvyj4f9q"><rect x="77.42" y="351.2" width="10.63" height="9.09" style="fill: rgb(255, 255, 255); transform-origin: 82.735px 355.745px; transform: rotate(180deg);" class="animable"></rect></g></g><g id="freepik--Shadow--inject-13" class="animable" style="transform-origin: 272.09px 456.95px;"><ellipse cx="272.09" cy="456.95" rx="146.67" ry="14.68" style="fill: rgb(235, 235, 235); transform-origin: 272.09px 456.95px;" id="el3a4n1aunv9f" class="animable"></ellipse></g><g id="freepik--Plant--inject-13" class="animable" style="transform-origin: 412.054px 341.672px;"><path d="M419.23,344.18a62.75,62.75,0,0,0-2.05,11.58c.1.19.08.91,0,.71,0,.64-1,.52-1-.1,0-.41,0-.82,0-1.22-2.27-2.81-5.55-4.59-8.21-7A15.35,15.35,0,0,1,403.5,341c-2.2-7.59-.14-15.64-2.79-23.21-2.28-6.52-6.38-12.2-9.85-18.11-3.65-6.26-6.35-12.83-6.62-20.15-.22-5.61.45-13.09,4.72-17.29,4.53-4.46,10.14-1.12,13.61,2.86,10.06,11.54,14.71,26.12,16.59,41,1,8.25,2.11,16.55,1.87,24.88A68.19,68.19,0,0,1,419.23,344.18Z" style="fill: rgb(255, 199, 39); transform-origin: 402.633px 308.505px;" id="elwq4urbvuia" class="animable"></path><path d="M417.22,358.79a142.58,142.58,0,0,0-.27-23.38s0,0,0-.08c.12-6.32.62-12.62.38-18.94a112.4,112.4,0,0,0-2.79-20.32.06.06,0,0,0-.12,0,132.61,132.61,0,0,1,2.2,19.87q.19,5.35-.09,10.71c-.06,1.16-.16,2.33-.24,3.5h0a125.21,125.21,0,0,0-18.8-49.75c-.14-.21-.5,0-.37.22a130,130,0,0,1,15.3,36.89c-4.83-8.95-12.14-16.32-17.55-24.93,0,0-.11,0-.09.05,4.87,9.58,12.91,17.14,18,26.58Q414.2,325,415,330.86A130.66,130.66,0,0,1,416.18,347c-2.94-5.51-6-10.77-8.41-16.59-.06-.16-.28-.05-.23.1,2,6,4.8,12.56,8.66,17.72q0,5.75-.32,11.48c-.6,10.21-2.34,20.28-3.15,30.45a.24.24,0,0,0,.47.05A232.76,232.76,0,0,0,417.22,358.79Z" style="fill: rgb(38, 50, 56); transform-origin: 406.176px 335.348px;" id="elcvjli5ra29r" class="animable"></path><path d="M406.38,280.08c0-.07-.14,0-.11.05,1.87,5.16,2.92,10.38,4.27,15.66a.19.19,0,0,0,.38-.06C410.37,290.37,408.46,285,406.38,280.08Z" style="fill: rgb(38, 50, 56); transform-origin: 408.594px 288.001px;" id="el3pswprujd7b" class="animable"></path><path d="M453.72,301.69a77.72,77.72,0,0,1-4.29,8.8c-3.35,6.1-6.85,11.69-7.49,18.78-.28,3.17-.38,6.36-1.35,9.41a28.1,28.1,0,0,1-3.75,7.36c-3.64,5.3-8.18,9.87-11.55,15.37a64.47,64.47,0,0,0-7.68,18.51c-.09.36-.65.27-.56-.09,0,0,0-.05,0-.08a.1.1,0,0,1,0-.08c-.53-15.22.68-30.55,5.33-45.13a155.94,155.94,0,0,1,7.37-18.78c2.49-5.29,5.59-10.37,9.95-14.32,2.84-2.55,9-7.39,13-4.83C454.63,297.84,454.48,299.79,453.72,301.69Z" style="fill: rgb(255, 199, 39); transform-origin: 435.59px 338.017px;" id="el4ibljphugx" class="animable"></path><path d="M438.42,336.19a124.83,124.83,0,0,1-8.84,12.71c-1.47,1.93-3,3.83-4.44,5.76-.69.91-1.47,1.82-2.11,2.79.4-1.6.79-3.2,1.2-4.8,2-7.69,3.85-15.44,6.78-22.84a153.44,153.44,0,0,1,10.57-20.71c.1-.18-.19-.31-.29-.14-3.22,5.29-6.48,10.57-9.18,16.15a85.44,85.44,0,0,0-3.9,9.58,146.83,146.83,0,0,1,5.19-20.47c0-.06-.07-.1-.09,0a69.77,69.77,0,0,0-5.39,21.29v0c-.66,2-1.26,4-1.83,6-2.4,8.51-4.5,17.11-6.45,25.75a92.55,92.55,0,0,1,1.46-16.93c0-.13-.17-.16-.2,0a53.87,53.87,0,0,0-1.47,17.84q-1.1,4.92-2.15,9.86c-1.5,7-3.34,14.15-4.21,21.28a.14.14,0,0,0,.28.05c1-3.84,1.67-7.82,2.53-11.71s1.74-7.8,2.64-11.68q2-8.51,4.12-16.95c.94-2.07,2.77-3.91,4.13-5.64,1.5-1.91,3-3.81,4.46-5.75a85.89,85.89,0,0,0,7.32-11.33C438.6,336.17,438.47,336.11,438.42,336.19Z" style="fill: rgb(38, 50, 56); transform-origin: 427.334px 354.179px;" id="elxhg9epy9k6l" class="animable"></path><path d="M439.07,329.68a79.85,79.85,0,0,0-8.65,13.75c0,.06.06.13.1.07,2.92-4.57,5.78-9.17,8.69-13.73C439.26,329.69,439.13,329.61,439.07,329.68Z" style="fill: rgb(38, 50, 56); transform-origin: 434.821px 336.588px;" id="el62esu4hmjhs" class="animable"></path><path d="M374.29,316.12c2,3.39,4.22,7.47,3.37,11.55-.53,2.58-2.42,4.68-2.76,7.31-.77,5.82,5,9.66,9.22,12.4,10.45,6.86,24.78,13,26.68,27,.07.49.93.37.87-.12a.29.29,0,0,0,0-.09s.05,0,.05-.08a53.68,53.68,0,0,0-.2-21.39c-1.56-7.22-4.71-13.7-8.42-20-6.29-10.73-12.95-21.72-22.46-29.94-2.64-2.27-8-6.36-10.12-1.23S371.87,312,374.29,316.12Z" style="fill: rgb(255, 199, 39); transform-origin: 391.28px 336.876px;" id="el426n1vlq80l" class="animable"></path><path d="M383.85,338.86c6.93,7.51,17.95,11.71,23.91,20.11a84,84,0,0,0-18.37-34.51.27.27,0,0,1,.38-.39,68,68,0,0,1,15,21.75,96.81,96.81,0,0,0-6.46-16.53c-.1-.21.19-.38.3-.18a62.94,62.94,0,0,1,7,18.58c7.86,19,8.59,41.34,6.94,61.39,0,.29-.46.3-.45,0,.45-15.8.2-31.88-3.59-47.31-.08-.32-.17-.64-.25-1-6.49-9.05-17.46-13.24-24.51-21.83C383.66,338.9,383.78,338.78,383.85,338.86Z" style="fill: rgb(38, 50, 56); transform-origin: 398.495px 366.647px;" id="elvdj11nidqaf" class="animable"></path><path d="M382.25,332.42c3.63,3.34,7.21,6.75,10.86,10.09,0,0,0,.09-.06.07a53.45,53.45,0,0,1-11-9.94A.16.16,0,0,1,382.25,332.42Z" style="fill: rgb(38, 50, 56); transform-origin: 387.572px 337.496px;" id="elsvajdi8s0dp" class="animable"></path><path d="M381.67,318a114.11,114.11,0,0,0,10.88,15,.06.06,0,1,1-.09.09,52.54,52.54,0,0,1-11-14.94A.11.11,0,0,1,381.67,318Z" style="fill: rgb(38, 50, 56); transform-origin: 387.003px 325.528px;" id="elnhefvyuqlvr" class="animable"></path><polygon points="398.05 423.23 429.91 423.23 425.61 380.36 402.95 380.36 398.05 423.23" style="fill: rgb(69, 90, 100); transform-origin: 413.98px 401.795px;" id="ela0zd3cuwul8" class="animable"></polygon><polygon points="402.15 387.33 426.31 387.33 425.62 380.36 402.95 380.36 402.15 387.33" style="fill: rgb(38, 50, 56); transform-origin: 414.23px 383.845px;" id="ele1db0jenuae" class="animable"></polygon><g id="elfn6rvxvjnng"><rect x="399.04" y="375.61" width="29.86" height="6.84" style="fill: rgb(69, 90, 100); transform-origin: 413.97px 379.03px; transform: rotate(180deg);" class="animable"></rect></g></g><g id="freepik--Floor--inject-13" class="animable" style="transform-origin: 250px 423.23px;"><polygon points="45.75 423.23 96.82 422.98 147.88 422.89 250 422.73 352.12 422.89 403.19 422.98 454.25 423.23 403.19 423.47 352.12 423.56 250 423.73 147.88 423.56 96.82 423.47 45.75 423.23" style="fill: rgb(38, 50, 56); transform-origin: 250px 423.23px;" id="elelwlex7djsi" class="animable"></polygon></g><g id="freepik--Manual--inject-13" class="animable" style="transform-origin: 233.195px 241.26px;"><polygon points="327.35 407.96 92.15 423.47 92.15 67.81 327.35 55.26 327.35 407.96" style="fill: rgb(255, 199, 39); transform-origin: 209.75px 239.365px;" id="eld6ty53p4xm" class="animable"></polygon><rect x="123.26" y="81.07" width="250.98" height="358.62" style="fill: rgb(255, 199, 39); transform-origin: 248.75px 260.38px;" id="ell4arvvjrshf" class="animable"></rect><g id="elzojiw79n7qn"><rect x="123.26" y="81.07" width="250.98" height="358.62" style="opacity: 0.2; transform-origin: 248.75px 260.38px;" class="animable"></rect></g><g id="elmj8b5p3u2km"><rect x="123.26" y="81.07" width="7.83" height="358.62" style="opacity: 0.1; transform-origin: 127.175px 260.38px;" class="animable"></rect></g><polygon points="123.25 81.07 95.08 69.06 321.88 63.8 368.14 81.07 123.25 81.07" style="fill: rgb(255, 255, 255); transform-origin: 231.61px 72.435px;" id="elucc9m34mk3" class="animable"></polygon><polygon points="97.25 70.15 112.92 69.55 128.58 69.03 159.91 68.11 191.25 67.36 206.92 67.05 222.6 66.82 206.93 67.42 191.27 67.94 159.93 68.86 128.59 69.61 112.92 69.92 97.25 70.15" style="fill: rgb(235, 235, 235); transform-origin: 159.925px 68.485px;" id="el3djick0mha8" class="animable"></polygon><polygon points="111.8 71.65 139.06 70.86 166.34 70.19 220.88 68.86 275.42 67.78 302.69 67.24 329.97 66.82 302.7 67.61 275.43 68.28 220.89 69.61 166.35 70.69 139.07 71.23 111.8 71.65" style="fill: rgb(235, 235, 235); transform-origin: 220.885px 69.235px;" id="el4tqwcufdbn8" class="animable"></polygon><path d="M111.21,75.8c10.18-.36,20.37-.61,30.55-.85l30.55-.57L202.87,74l15.28-.09,15.28,0-15.27.47-15.28.37-30.55.58-30.56.34C131.58,75.79,121.4,75.85,111.21,75.8Z" style="fill: rgb(235, 235, 235); transform-origin: 172.32px 74.8638px;" id="elxavdlbjfv9" class="animable"></path><polygon points="116.69 78.8 136.66 78.41 156.64 78.13 196.58 77.72 236.53 77.55 256.51 77.54 276.48 77.64 256.51 78.03 236.54 78.31 196.59 78.72 156.64 78.89 136.67 78.9 116.69 78.8" style="fill: rgb(235, 235, 235); transform-origin: 196.585px 78.22px;" id="elb6d3ujpl2rr" class="animable"></polygon><path d="M249.81,75c8.84-.21,17.69-.3,26.53-.38l26.53-.12,26.52.11,13.27.14,13.26.25-13.26.24-13.27.14-26.52.12-26.53-.12C267.5,75.25,258.65,75.16,249.81,75Z" style="fill: rgb(235, 235, 235); transform-origin: 302.865px 75px;" id="elje35g3v42xo" class="animable"></path><path d="M242,71.07c7.94-.34,15.89-.56,23.83-.76l23.83-.49,23.83-.26,11.92,0,11.92.06L325.43,70l-11.92.32-23.83.49-23.83.26C257.91,71.12,250,71.15,242,71.07Z" style="fill: rgb(235, 235, 235); transform-origin: 289.665px 70.3397px;" id="el5a4nw84b706" class="animable"></path><path d="M321.88,63.8c3.93,1.25,7.82,2.6,11.7,4s7.74,2.81,11.61,4.21,7.69,2.91,11.52,4.42l5.73,2.29c1.9.8,3.81,1.57,5.7,2.39-2-.61-3.91-1.28-5.87-1.93l-5.83-2c-3.88-1.37-7.74-2.81-11.6-4.21s-7.7-2.91-11.53-4.43S325.67,65.44,321.88,63.8Z" style="fill: rgb(235, 235, 235); transform-origin: 345.01px 72.455px;" id="ely9tweefbr9p" class="animable"></path><polygon points="92.15 423.47 123.25 439.69 123.25 81.07 92.15 67.81 92.15 423.47" style="fill: rgb(255, 199, 39); transform-origin: 107.7px 253.75px;" id="elsjortnkwpp" class="animable"></polygon><g id="el3d4satdqimh"><polygon points="92.15 423.47 123.25 439.69 123.25 81.07 92.15 67.81 92.15 423.47" style="opacity: 0.4; transform-origin: 107.7px 253.75px;" class="animable"></polygon></g><path d="M186,140.92a.24.24,0,0,1,.26-.26.25.25,0,0,1,.24.26v13.62a.25.25,0,0,1-.24.27.24.24,0,0,1-.26-.27Z" style="fill: rgb(255, 255, 255); transform-origin: 186.249px 147.735px;" id="elat280js11x5" class="animable"></path><path d="M192.53,141.71v12.83a.25.25,0,0,1-.24.27.28.28,0,0,1-.26-.27V141a.32.32,0,0,1,.1-.22.27.27,0,0,1,.36,0l9.34,13V141a.28.28,0,0,1,.26-.26.25.25,0,0,1,.24.26v13.52a.25.25,0,0,1-.24.27.26.26,0,0,1-.24-.16s0,0,0,0Z" style="fill: rgb(255, 255, 255); transform-origin: 197.18px 147.761px;" id="elnrwgnbzzd6j" class="animable"></path><path d="M206.9,152.4a.24.24,0,0,1,.32,0,8.33,8.33,0,0,0,4.91,1.94,5.63,5.63,0,0,0,3.34-1,3,3,0,0,0,1.35-2.36,2.58,2.58,0,0,0-1.29-2.17,9.1,9.1,0,0,0-3.44-1.19l0,0a8.91,8.91,0,0,1-3.35-1.19,2.81,2.81,0,0,1-1.4-2.36c0-2,2.2-3.56,4.79-3.56a7.82,7.82,0,0,1,4.37,1.66.22.22,0,0,1,.06.32.23.23,0,0,1-.31.06,7.39,7.39,0,0,0-4.12-1.58,5.39,5.39,0,0,0-3.09.93,2.74,2.74,0,0,0-1.23,2.17,2.35,2.35,0,0,0,1.19,2,8.63,8.63,0,0,0,3.17,1.13h0a10.11,10.11,0,0,1,3.62,1.27,3,3,0,0,1,1.49,2.55c0,2.18-2.36,3.84-5.15,3.84a8.68,8.68,0,0,1-5.19-2A.26.26,0,0,1,206.9,152.4Z" style="fill: rgb(255, 255, 255); transform-origin: 212.03px 147.685px;" id="elvm1d6h7yno" class="animable"></path><path d="M224.62,141.17H220a.25.25,0,0,1-.26-.25.26.26,0,0,1,.26-.26h9.84a.25.25,0,0,1,.26.26.24.24,0,0,1-.26.25h-4.65v13.37a.28.28,0,0,1-.26.27.25.25,0,0,1-.26-.27Z" style="fill: rgb(255, 255, 255); transform-origin: 224.92px 147.735px;" id="el8j467mi2rjn" class="animable"></path><path d="M241.17,151.76a2.83,2.83,0,0,0-1-2.19,5.16,5.16,0,0,0-1.69-.93,3.1,3.1,0,0,0-.53-.12h-3.84v6a.25.25,0,0,1-.24.27.27.27,0,0,1-.26-.27V140.92a.26.26,0,0,1,.26-.26H238a4,4,0,0,1,3.94,3.94,3.88,3.88,0,0,1-2.83,3.76,5.49,5.49,0,0,1,.73.36,3.45,3.45,0,0,1,1.84,3,5.07,5.07,0,0,0,.3,2.06c.19.28.29.24.31.24h0a.27.27,0,0,1,.3.18.23.23,0,0,1-.16.3s-.08,0-.18,0a.89.89,0,0,1-.73-.54A4.63,4.63,0,0,1,241.17,151.76ZM238,148h0a3.39,3.39,0,0,0,3.38-3.4,3.43,3.43,0,0,0-3.42-3.43h-3.9V148Z" style="fill: rgb(255, 255, 255); transform-origin: 238.107px 147.725px;" id="eltshxpolpch" class="animable"></path><path d="M245.31,140.92a.25.25,0,0,1,.26-.26.25.25,0,0,1,.24.26v8.21a5.16,5.16,0,1,0,10.31,0v-8.21a.26.26,0,0,1,.26-.26.28.28,0,0,1,.26.26v8.21a5.67,5.67,0,1,1-11.33,0Z" style="fill: rgb(255, 255, 255); transform-origin: 250.975px 147.849px;" id="el8ou61r9fe6" class="animable"></path><path d="M268.44,140.46A7.56,7.56,0,0,1,273,142a.27.27,0,0,1,.08.36.26.26,0,0,1-.38,0,7,7,0,0,0-4.29-1.44,6.65,6.65,0,1,0,0,13.3,6.93,6.93,0,0,0,4.27-1.43.28.28,0,0,1,.38,0,.24.24,0,0,1-.06.36,7.65,7.65,0,0,1-4.59,1.56,7.18,7.18,0,1,1,0-14.35Z" style="fill: rgb(255, 255, 255); transform-origin: 267.04px 147.535px;" id="elobfw3yi4wgo" class="animable"></path><path d="M281.15,141.17h-4.67a.25.25,0,0,1-.26-.25.26.26,0,0,1,.26-.26h9.84a.26.26,0,0,1,.27.26.25.25,0,0,1-.27.25h-4.64v13.37a.29.29,0,0,1-.27.27.25.25,0,0,1-.26-.27Z" style="fill: rgb(255, 255, 255); transform-origin: 281.405px 147.735px;" id="elzqqly73p1f8" class="animable"></path><path d="M290.54,140.92a.24.24,0,0,1,.27-.26.25.25,0,0,1,.24.26v13.62a.25.25,0,0,1-.24.27.25.25,0,0,1-.27-.27Z" style="fill: rgb(255, 255, 255); transform-origin: 290.795px 147.734px;" id="eln5g2gq8o08" class="animable"></path><path d="M302.83,140.46a7.32,7.32,0,1,1-6.89,7.29A7.12,7.12,0,0,1,302.83,140.46Zm0,14.06a6.78,6.78,0,1,0-6.35-6.77A6.64,6.64,0,0,0,302.83,154.52Z" style="fill: rgb(255, 255, 255); transform-origin: 303.259px 147.767px;" id="eldrfgfgmol5i" class="animable"></path><path d="M313.72,141.71v12.83a.25.25,0,0,1-.24.27.28.28,0,0,1-.27-.27V141a.29.29,0,0,1,.11-.22.27.27,0,0,1,.36,0l9.33,13V141a.29.29,0,0,1,.27-.26.25.25,0,0,1,.24.26v13.52a.25.25,0,0,1-.24.27.26.26,0,0,1-.24-.16s0,0,0,0Z" style="fill: rgb(255, 255, 255); transform-origin: 318.365px 147.761px;" id="eljz1ux0ma2n" class="animable"></path><path d="M206.32,162.67v20.5a2,2,0,0,1-1.95,1.91,1.9,1.9,0,0,1-1.91-1.91V168.54l-5,7a1.87,1.87,0,0,1-1.56.8h-.07a1.93,1.93,0,0,1-1.6-.8l-5-7v14.63a1.93,1.93,0,0,1-3.86,0v-20.5a1.93,1.93,0,0,1,1.91-1.91h.11a1.9,1.9,0,0,1,1.53.8l6.91,9.59,6.92-9.59a1.88,1.88,0,0,1,1.56-.8h0A2,2,0,0,1,206.32,162.67Z" style="fill: rgb(255, 255, 255); transform-origin: 195.845px 172.93px;" id="elfnzni1n1rb" class="animable"></path><path d="M224.87,179.35h-8.44l-1.71,4.52a1.94,1.94,0,0,1-1.8,1.21,2,2,0,0,1-.66-.1,2,2,0,0,1-1.15-2.5L218.79,162a1.94,1.94,0,0,1,1.84-1.21,1.9,1.9,0,0,1,1.84,1.21l7.68,20.47A2,2,0,0,1,229,185a1.83,1.83,0,0,1-.66.1,1.87,1.87,0,0,1-1.77-1.21Zm-1.42-3.82-2.82-7.47-2.81,7.47Z" style="fill: rgb(255, 255, 255); transform-origin: 220.635px 172.945px;" id="el72mv67fi1s" class="animable"></path><path d="M238.73,183.17a1.9,1.9,0,1,1-3.79,0V163a1.88,1.88,0,0,1,3.41-1.18l11.22,15.53V163a1.89,1.89,0,0,1,1.88-1.88,1.92,1.92,0,0,1,1.91,1.88v20.18a1.92,1.92,0,0,1-1.91,1.91,1.88,1.88,0,0,1-1.43-.69.78.78,0,0,1-.17-.21l-11.12-15.43Z" style="fill: rgb(255, 255, 255); transform-origin: 244.148px 173.119px;" id="el25x9619vtv6" class="animable"></path><path d="M270,185.08a10,10,0,0,1-10-10V162.67a1.88,1.88,0,0,1,1.91-1.91,1.94,1.94,0,0,1,2,1.91V175a6.19,6.19,0,1,0,12.37,0V162.67a1.92,1.92,0,0,1,1.94-1.91,1.88,1.88,0,0,1,1.91,1.91V175A10,10,0,0,1,270,185.08Z" style="fill: rgb(255, 255, 255); transform-origin: 270.065px 172.92px;" id="eld4s5jy8nc39" class="animable"></path><path d="M298.9,179.35h-8.44l-1.7,4.52a2,2,0,0,1-1.81,1.21,2,2,0,0,1-.66-.1,2,2,0,0,1-1.15-2.5L292.82,162a1.94,1.94,0,0,1,1.84-1.21A1.9,1.9,0,0,1,296.5,162l7.68,20.47A2,2,0,0,1,303,185a1.91,1.91,0,0,1-.66.1,1.88,1.88,0,0,1-1.78-1.21Zm-1.42-3.82-2.82-7.47-2.81,7.47Z" style="fill: rgb(255, 255, 255); transform-origin: 294.663px 172.945px;" id="ellddr6kadmw" class="animable"></path><path d="M308.94,183.17v-20.5a1.9,1.9,0,0,1,1.91-1.91,1.94,1.94,0,0,1,1.95,1.91v18.56h9.41a1.93,1.93,0,0,1,0,3.85H310.85A1.9,1.9,0,0,1,308.94,183.17Z" style="fill: rgb(255, 255, 255); transform-origin: 316.471px 172.92px;" id="elukzd5hxw3c9" class="animable"></path><rect x="185.4" y="192.61" width="138.72" height="2" style="fill: rgb(255, 255, 255); transform-origin: 254.76px 193.61px;" id="elyku8d3tt9ci" class="animable"></rect><g id="elz7nbboius4"><path d="M293.88,240.13a16.23,16.23,0,0,1-16.76,3.43l-46.8,44.17a16.26,16.26,0,0,1-21.16,20l9.67-9.14-3.09-7-6.85-3.5-9.68,9.14a16.27,16.27,0,0,1,21.18-20L267.17,233a16.25,16.25,0,0,1,21.17-20l-9.69,9.13,3.11,7,6.84,3.51,9.69-9.15A16.28,16.28,0,0,1,293.88,240.13Z" style="opacity: 0.1; transform-origin: 248.758px 260.36px;" class="animable"></path></g><g id="elwqtfahu3gsj"><rect x="247.11" y="242.82" width="5.97" height="32.57" style="opacity: 0.1; transform-origin: 250.095px 259.105px; transform: rotate(-133.35deg);" class="animable"></rect></g><g id="elbboo6dc2bks"><g style="opacity: 0.1; transform-origin: 291.805px 283.92px;" class="animable"><path d="M280.22,283.92a11.59,11.59,0,1,0,11.58-11.59A11.59,11.59,0,0,0,280.22,283.92Zm2.47,0A9.12,9.12,0,1,1,291.8,293,9.11,9.11,0,0,1,282.69,283.92Zm-2.47,0a11.59,11.59,0,1,0,11.58-11.59A11.59,11.59,0,0,0,280.22,283.92Zm2.47,0A9.12,9.12,0,1,1,291.8,293,9.11,9.11,0,0,1,282.69,283.92Zm-10.41,0a19.53,19.53,0,1,0,19.52-19.53A19.53,19.53,0,0,0,272.28,283.92Zm6.83,0a12.7,12.7,0,1,1,12.69,12.7A12.72,12.72,0,0,1,279.11,283.92Zm1.11,0a11.59,11.59,0,1,0,11.58-11.59A11.59,11.59,0,0,0,280.22,283.92Zm2.47,0A9.12,9.12,0,1,1,291.8,293,9.11,9.11,0,0,1,282.69,283.92Z" id="el3z0erstwr5c" class="animable" style="transform-origin: 291.81px 283.92px;"></path><polygon points="289.51 264.74 293.99 264.74 293.54 260.28 289.96 260.28 289.51 264.74" id="el8ewu9o9yb3j" class="animable" style="transform-origin: 291.75px 262.51px;"></polygon><polygon points="299.41 266.17 303.28 268.4 305.13 264.31 302.03 262.52 299.41 266.17" id="el8pt24d5sdxh" class="animable" style="transform-origin: 302.27px 265.46px;"></polygon><polygon points="307.27 272.35 309.5 276.22 313.14 273.6 311.35 270.5 307.27 272.35" id="elfp8t477nsls" class="animable" style="transform-origin: 310.205px 273.36px;"></polygon><polygon points="310.98 281.63 310.98 286.1 315.44 285.65 315.44 282.07 310.98 281.63" id="elwthz6dysf2i" class="animable" style="transform-origin: 313.21px 283.865px;"></polygon><polygon points="309.56 291.52 307.32 295.39 311.41 297.24 313.2 294.14 309.56 291.52" id="elqeww841yfb" class="animable" style="transform-origin: 310.26px 294.38px;"></polygon><polygon points="303.38 299.38 299.51 301.61 302.13 305.26 305.23 303.47 303.38 299.38" id="el1nywj1nb1a" class="animable" style="transform-origin: 302.37px 302.32px;"></polygon><polygon points="294.1 303.09 289.63 303.09 290.07 307.56 293.65 307.56 294.1 303.09" id="elx7octqz1g4" class="animable" style="transform-origin: 291.865px 305.325px;"></polygon><polygon points="284.21 301.67 280.33 299.44 278.49 303.52 281.59 305.31 284.21 301.67" id="elnglwfstn47o" class="animable" style="transform-origin: 281.35px 302.375px;"></polygon><polygon points="276.35 295.49 274.11 291.62 270.47 294.24 272.26 297.34 276.35 295.49" id="elp9hzfp9l8ap" class="animable" style="transform-origin: 273.41px 294.48px;"></polygon><polygon points="272.63 286.21 272.63 281.74 268.17 282.19 268.17 285.77 272.63 286.21" id="el5dj6xl3e2r" class="animable" style="transform-origin: 270.4px 283.975px;"></polygon><polygon points="274.05 276.32 276.29 272.44 272.2 270.6 270.41 273.7 274.05 276.32" id="elutopirwmx48" class="animable" style="transform-origin: 273.35px 273.46px;"></polygon><polygon points="280.23 268.46 284.11 266.22 281.49 262.58 278.39 264.37 280.23 268.46" id="elxrvupbvl20l" class="animable" style="transform-origin: 281.25px 265.52px;"></polygon></g></g><g id="el4dikvwskr1h"><g style="opacity: 0.1; transform-origin: 214.66px 228.205px;" class="animable"><path d="M213.85,234.51a6.22,6.22,0,1,0-5.62-6.77A6.21,6.21,0,0,0,213.85,234.51Zm-4.86-6.7a5.46,5.46,0,1,1,4.92,5.94A5.45,5.45,0,0,1,209,227.81Zm4.86,6.7a6.22,6.22,0,1,0-5.62-6.77A6.21,6.21,0,0,0,213.85,234.51Zm-4.86-6.7a5.46,5.46,0,1,1,4.92,5.94A5.45,5.45,0,0,1,209,227.81Zm4.86,6.7a6.22,6.22,0,1,0-5.62-6.77A6.21,6.21,0,0,0,213.85,234.51Zm-4.86-6.7a5.46,5.46,0,1,1,4.92,5.94A5.45,5.45,0,0,1,209,227.81Zm4.22,13.56a13.11,13.11,0,1,0-11.84-14.26A13.11,13.11,0,0,0,213.21,241.37Zm-5.94-13.72a7.18,7.18,0,1,1,6.48,7.82A7.2,7.2,0,0,1,207.27,227.65Zm1,.09a6.22,6.22,0,1,0,6.76-5.61A6.22,6.22,0,0,0,208.23,227.74Zm.76.07a5.46,5.46,0,1,1,4.92,5.94A5.45,5.45,0,0,1,209,227.81Zm4.86,6.7a6.22,6.22,0,1,0-5.62-6.77A6.21,6.21,0,0,0,213.85,234.51Zm-4.86-6.7a5.46,5.46,0,1,1,4.92,5.94A5.45,5.45,0,0,1,209,227.81Zm4.86,6.7a6.22,6.22,0,1,0-5.62-6.77A6.21,6.21,0,0,0,213.85,234.51Zm-4.86-6.7a5.46,5.46,0,1,1,4.92,5.94A5.45,5.45,0,0,1,209,227.81Z" id="el2ej2ojgum1h" class="animable" style="transform-origin: 214.424px 228.316px;"></path><polygon points="213.07 215.58 218.09 216.04 218.15 212.47 213.68 212.05 213.07 215.58" id="elbkrqh6lvsrh" class="animable" style="transform-origin: 215.61px 214.045px;"></polygon><polygon points="222.47 218.16 225.69 222.03 228.25 219.54 225.39 216.09 222.47 218.16" id="el5ukvhs9xfa" class="animable" style="transform-origin: 225.36px 219.06px;"></polygon><polygon points="227.29 226.62 226.82 231.64 230.4 231.69 230.81 227.23 227.29 226.62" id="elneyo5m47y59" class="animable" style="transform-origin: 228.815px 229.155px;"></polygon><polygon points="224.71 236.01 220.83 239.23 223.32 241.8 226.77 238.94 224.71 236.01" id="elfmsqmsy5y95" class="animable" style="transform-origin: 223.8px 238.905px;"></polygon><polygon points="216.25 240.83 211.23 240.37 211.18 243.94 215.64 244.36 216.25 240.83" id="elrb8atpd7gd8" class="animable" style="transform-origin: 213.715px 242.365px;"></polygon><polygon points="206.85 238.25 203.63 234.38 201.07 236.87 203.93 240.32 206.85 238.25" id="elgkdqbevyh6b" class="animable" style="transform-origin: 203.96px 237.35px;"></polygon><polygon points="202.03 229.79 202.5 224.77 198.92 224.72 198.51 229.18 202.03 229.79" id="eleoqs1yq1dqb" class="animable" style="transform-origin: 200.505px 227.255px;"></polygon><polygon points="204.61 220.4 208.49 217.18 206 214.61 202.55 217.47 204.61 220.4" id="elsvk5bex6nb" class="animable" style="transform-origin: 205.52px 217.505px;"></polygon></g></g><g id="el1peuasy1rzq"><g style="opacity: 0.1; transform-origin: 238.11px 240.365px;" class="animable"><path d="M230.12,242.19a8.05,8.05,0,1,0,6.16-9.58A8.05,8.05,0,0,0,230.12,242.19Zm4.2-.92a3.76,3.76,0,1,1,4.47,2.88A3.75,3.75,0,0,1,234.32,241.27Z" id="elzgagu6l3duh" class="animable" style="transform-origin: 237.986px 240.477px;"></path><polygon points="234.84 233.26 237.87 232.6 237.23 230.5 234.54 231.08 234.84 233.26" id="el9im0y1phdit" class="animable" style="transform-origin: 236.205px 231.88px;"></polygon><polygon points="240.82 233.03 243.43 234.71 244.47 232.77 242.15 231.28 240.82 233.03" id="elof1cq7xprdj" class="animable" style="transform-origin: 242.645px 232.995px;"></polygon><polygon points="245.21 237.09 245.87 240.12 247.98 239.49 247.39 236.8 245.21 237.09" id="el436lbxv6zi" class="animable" style="transform-origin: 246.595px 238.46px;"></polygon><polygon points="245.45 243.08 243.77 245.68 245.71 246.72 247.2 244.41 245.45 243.08" id="elnoyumkmvveh" class="animable" style="transform-origin: 245.485px 244.9px;"></polygon><polygon points="241.38 247.47 238.35 248.13 238.99 250.23 241.68 249.65 241.38 247.47" id="elpdthk1o2ge" class="animable" style="transform-origin: 240.015px 248.85px;"></polygon><polygon points="235.4 247.7 232.79 246.03 231.75 247.96 234.07 249.45 235.4 247.7" id="elr2uh4sijb7" class="animable" style="transform-origin: 233.575px 247.74px;"></polygon><polygon points="231.01 243.64 230.35 240.61 228.24 241.24 228.83 243.94 231.01 243.64" id="eldkxzx4atqw9" class="animable" style="transform-origin: 229.625px 242.275px;"></polygon><polygon points="230.77 237.66 232.45 235.05 230.51 234.01 229.02 236.33 230.77 237.66" id="elkutvr0n16kn" class="animable" style="transform-origin: 230.735px 235.835px;"></polygon><path d="M239.38,238.31l-2.57-.12-1.39,2.16,1.18,2.29,2.57.12,1.39-2.16Zm-1.22,3a.8.8,0,0,1-1-.62.81.81,0,0,1,1.59-.35A.82.82,0,0,1,238.16,241.27Z" id="elkutidbhcs8h" class="animable" style="transform-origin: 237.99px 240.475px;"></path></g></g><path d="M301.06,75h26.29a70.24,70.24,0,0,1,10,6.12v49.71l-12-8.24-12.55,8.24V81.07Z" style="fill: rgb(55, 71, 79); transform-origin: 319.205px 102.915px;" id="el9b6de0qq9mn" class="animable"></path><path d="M187.59,74.65l24.92-.38s-3.76-14.41-5.65-17.92S193,42.83,193,42.83L191.58,51l-19.26-2.74s7.84,7,10.4,9.73C184.74,60.11,187.59,74.65,187.59,74.65Z" style="fill: rgb(255, 199, 39); transform-origin: 192.415px 58.74px;" id="el6sls4j82xj" class="animable"></path><polygon points="153.27 70.73 174.9 70.19 173.05 52.18 163.77 59.31 152.82 53.6 153.27 70.73" style="fill: rgb(38, 50, 56); transform-origin: 163.86px 61.455px;" id="el9nitfcuq1hm" class="animable"></polygon></g><g id="freepik--Character--inject-13" class="animable animator-hidden" style="transform-origin: 271.738px 371.26px;"><path d="M410.25,453.26c-2.59.93-79.15,2.44-82,.69-.33-.18-1.58-25.51-1.58-25.51.09-.36-1.19-2.81-3.14-6.2-5.46-9.52-16.13-26.59-16.13-26.59l45.44-13.74,18.67,37.4,4.76,9.54s10.43,4.08,19.54,8.15l0,0c5.61,2.5,10.49,4.78,11.63,5.64C410.35,444.91,412.83,452.35,410.25,453.26Z" style="fill: rgb(255, 196, 192); transform-origin: 359.366px 418.333px;" id="elfzlhrqs9k2" class="animable"></path><path d="M410.25,453.26c-2.59.93-79.15,2.44-82,.69-.33-.18-1.58-25.51-1.58-25.51.09-.36-1.19-2.81-3.14-6.2l48-2.93,4.76,9.54s10.43,4.08,19.54,8.15l0,0c5.61,2.5,10.49,4.78,11.63,5.64C410.35,444.91,412.83,452.35,410.25,453.26Z" style="fill: rgb(255, 255, 255); transform-origin: 367.431px 437.033px;" id="elg1451etp7g" class="animable"></path><path d="M410.57,453.54c-2.66.95-79.33,2.26-82.29.46-1.12-.67-2.47-12.47-1.65-25.56l49.43-.79s28.62,12.65,31.66,15S413.23,452.6,410.57,453.54Z" style="fill: rgb(255, 199, 39); transform-origin: 369.04px 441.273px;" id="elbdr6m3f1i4l" class="animable"></path><g id="ele7j0ro7w8n8"><path d="M348.34,454.87c-10.91-.05-19.12-.31-20.06-.86-1.12-.68-2.48-12.48-1.65-25.57l1.21,0Z" style="opacity: 0.1; transform-origin: 337.357px 441.655px;" class="animable"></path></g><path d="M409.42,450.5c-12.86-.1-64.73.73-77.44,1.61-.11,0-.11.08,0,.08,12.74.38,64.6-.87,77.44-1.48C409.69,450.69,409.69,450.5,409.42,450.5Z" style="fill: rgb(38, 50, 56); transform-origin: 370.76px 451.376px;" id="el90klbte70x" class="animable"></path><path d="M402.74,440a10.32,10.32,0,0,0-7.64,3.27,10,10,0,0,0-2.75,6.91c0,.07.14.07.15,0a11.93,11.93,0,0,1,10.24-10C402.84,440.1,402.84,440,402.74,440Z" style="fill: rgb(38, 50, 56); transform-origin: 397.582px 445.116px;" id="elilz2g2826ej" class="animable"></path><path d="M380.11,428.87c-5.14,0-11.07,1.93-14.2,6.19-.12.17.12.34.27.26a71.11,71.11,0,0,1,14-5.82A.32.32,0,0,0,380.11,428.87Z" style="fill: rgb(38, 50, 56); transform-origin: 373.149px 432.105px;" id="elllyc13e4s6" class="animable"></path><path d="M384.11,430.35c-5.14,0-11.08,1.93-14.2,6.19-.12.17.11.34.27.26a70.61,70.61,0,0,1,14-5.82A.32.32,0,0,0,384.11,430.35Z" style="fill: rgb(38, 50, 56); transform-origin: 377.149px 433.585px;" id="elik6awkzs9z8" class="animable"></path><path d="M388.11,431.83c-5.15,0-11.08,1.93-14.2,6.19-.12.17.11.34.26.26a71,71,0,0,1,14-5.82A.32.32,0,0,0,388.11,431.83Z" style="fill: rgb(38, 50, 56); transform-origin: 381.145px 435.065px;" id="el3gtyhars9rd" class="animable"></path><path d="M392.11,433.31c-5.15,0-11.08,1.93-14.21,6.19-.12.17.12.34.27.26a71,71,0,0,1,14-5.82A.32.32,0,0,0,392.11,433.31Z" style="fill: rgb(38, 50, 56); transform-origin: 385.14px 436.545px;" id="elhkz9tokv71" class="animable"></path><path d="M335,439.85c-5.77.12-5.6,9.09.18,9S340.82,439.74,335,439.85Z" style="fill: rgb(38, 50, 56); transform-origin: 335.099px 444.35px;" id="elf6lyt1o2dff" class="animable"></path><path d="M385.44,415.05c-2.64-2.12-5.89.05-7.45,2.32a26.93,26.93,0,0,0-4.45,13.23c0,.11.08.15.16.15a.64.64,0,0,0,.93.4c3.62-2.6,7.81-4.93,10.53-8.56C386.74,420.47,387.93,417.05,385.44,415.05Zm-6.13,11c-1.74,1.32-3.55,2.54-5.25,3.93.88-2.58,1.64-5.18,2.77-7.67a29.17,29.17,0,0,1,1.82-3.51c1.09-1.71,6.06-6.1,6.67-.51C385.66,421.41,381.4,424.51,379.31,426.09Z" style="fill: rgb(38, 50, 56); transform-origin: 380.207px 422.708px;" id="elbxb4zh792zf" class="animable"></path><path d="M360.79,432.73c4.49.61,9.09-.75,13.48-1.5a.64.64,0,0,0,.37-1,.14.14,0,0,0,0-.22A27,27,0,0,0,362.1,424c-2.72-.47-6.54.32-6.89,3.68C354.89,430.82,358.17,432.37,360.79,432.73Zm-3.16-2.88c-3.55-4.35,3.06-4.82,5.05-4.39a28.83,28.83,0,0,1,3.77,1.16,80,80,0,0,1,7.41,3.41c-2.18.24-4.31.66-6.48,1C364.79,431.4,359.59,432.25,357.63,429.85Z" style="fill: rgb(38, 50, 56); transform-origin: 364.976px 428.38px;" id="elmmfxf2euex" class="animable"></path><path d="M320,421.75l53.91-8.17S348,361.93,332,333.9c-8.92-15.58-33.32-16.34-45.19,2.33-15.85,24.94-28.15,48.31-35.2,61.27l-12.23,1.05,2.64,20,40.64,9.1c15.57,1.86,26.49-25.85,26.75-25.38C311.37,405.89,320,421.75,320,421.75Z" style="fill: rgb(55, 71, 79); transform-origin: 306.645px 374.977px;" id="elt2yz8fh9zt" class="animable"></path><path d="M309.68,402.37c-1.53-3.14-2.73-6.47-4.09-9.69s-2.64-6.22-3.95-9.34c-2.65-6.3-5.39-12.57-7.95-18.9-1.44-3.55-2.76-7.15-4.11-10.74a.07.07,0,0,0-.14,0q1.57,5.1,3.26,10.14c-.3-.58-.6-1.16-.91-1.73q-1.31-2.31-2.66-4.6c0-.06-.12,0-.09.05.83,1.54,1.66,3.07,2.51,4.59.43.76.9,1.5,1.35,2.26a237.4,237.4,0,0,0,11.18,27.62c1.72,3.52,3.72,6.89,5.44,10.4C309.57,402.58,309.74,402.48,309.68,402.37Z" style="fill: rgb(38, 50, 56); transform-origin: 299.364px 378.068px;" id="ely3cvl35w3wn" class="animable"></path><path d="M321.24,412.17c-2.6-4-8.79-16.15-11-20.35-4.48-8.49-8.59-17.15-12.47-25.93-2.19-5-4.24-10-6.27-15,0,0-.07,0-.05,0a285.64,285.64,0,0,0,10.63,26.63c4,8.72,16.71,32.19,19,34.73C321.16,412.36,321.31,412.27,321.24,412.17Z" style="fill: rgb(38, 50, 56); transform-origin: 306.352px 381.595px;" id="elajffppom6h" class="animable"></path><path d="M287.77,357.6c-4.64,8.29-9.39,16.53-14.06,24.82-2.35,4.18-4.71,8.37-7,12.57-1.1,2-2.16,4-3.3,5.93a11.18,11.18,0,0,1-4.26,4.42,33.44,33.44,0,0,1-6.76,2.36c-2.63.77-5.23,1.59-7.87,2.31a.1.1,0,0,0,.06.19c2.35-.63,4.72-1.17,7.08-1.75a62.27,62.27,0,0,0,6.43-1.74,10.29,10.29,0,0,0,4.76-3.29,38.2,38.2,0,0,0,3.34-5.57q7-12.78,13.85-25.63c2.6-4.86,5.18-9.74,7.81-14.6C287.83,357.6,287.79,357.57,287.77,357.6Z" style="fill: rgb(38, 50, 56); transform-origin: 266.154px 383.895px;" id="eleuesq6dy6ld" class="animable"></path><path d="M318.81,414.18c3.23-.58,6.54-.87,9.79-1.28l9.8-1.27c6.52-.85,28.69-4.39,30.37-4.94.1,0,.06-.21,0-.21-1.59-.05-16.11,1.88-19.37,2.36-6.51,1-13,2.12-19.47,3.21-1.86.31-3.7.67-5.55,1s-3.7.72-5.56,1C318.67,414,318.7,414.2,318.81,414.18Z" style="fill: rgb(38, 50, 56); transform-origin: 343.774px 410.33px;" id="elo85nroe3vf" class="animable"></path><path d="M351.13,470.17c-.86-2.61-47.07-63.68-50.23-64.85-.36-.16-21,14.54-21,14.54-.85,1.14-40.12-7.16-40.12-7.16l-.39,47.37,71.53-1.52s9.66,5.68,18.5,10.31h0c5.44,2.86,10.26,5.28,11.63,5.64C344.64,475.42,352,472.76,351.13,470.17Z" style="fill: rgb(255, 196, 192); transform-origin: 295.295px 440.002px;" id="el4blof3q0zo5" class="animable"></path><path d="M341.06,474.5c-1.38-.35-6.19-2.76-11.62-5.64,0,0,0,0,0,0-8.83-4.62-18.49-10.31-18.49-10.31l-15.92.34-24.93-40.21c5.47,1,9.55,1.55,9.83,1.18,0,0,20.65-14.7,21-14.54,3.16,1.17,49.37,62.23,50.23,64.84S344.64,475.43,341.06,474.5Z" style="fill: rgb(255, 255, 255); transform-origin: 310.665px 440.004px;" id="elk3uf40pgk3" class="animable"></path><path d="M351.56,470.25c-.91-2.68-47.33-63.71-50.58-64.91-1.22-.47-11.33,5.77-21.1,14.52l30,39.31s27.65,14.65,31.35,15.6S352.47,472.92,351.56,470.25Z" style="fill: rgb(255, 199, 39); transform-origin: 315.758px 440.137px;" id="elqeosvsg5egb" class="animable"></path><path d="M348.45,471.23c-8-10-39.49-51.29-46.66-61.82-.06-.09,0-.13.06-.05,8.18,9.77,39.3,51.28,46.77,61.74C348.78,471.32,348.62,471.44,348.45,471.23Z" style="fill: rgb(38, 50, 56); transform-origin: 325.226px 440.328px;" id="elsb0hbg51ha" class="animable"></path><path d="M336,472.51a10.34,10.34,0,0,1-2.16-8,10,10,0,0,1,3.73-6.44c.06,0,.15.07.09.12a11.93,11.93,0,0,0-1.53,14.25A.08.08,0,0,1,336,472.51Z" style="fill: rgb(38, 50, 56); transform-origin: 335.703px 465.299px;" id="el8fd037debyv" class="animable"></path><path d="M313.33,461.6c-3.18-4.05-5.34-9.9-3.93-15,.06-.2.34-.11.37.05a70.87,70.87,0,0,0,4.11,14.63A.32.32,0,0,1,313.33,461.6Z" style="fill: rgb(38, 50, 56); transform-origin: 311.434px 454.108px;" id="eluq7mt9k3xlb" class="animable"></path><path d="M317,463.83c-3.17-4.06-5.34-9.9-3.92-15,0-.2.33-.12.36.05a71,71,0,0,0,4.12,14.62A.33.33,0,0,1,317,463.83Z" style="fill: rgb(38, 50, 56); transform-origin: 315.109px 456.329px;" id="ellhc9b49p6eg" class="animable"></path><path d="M320.6,466.05c-3.17-4.05-5.34-9.9-3.93-15,.06-.2.34-.12.37.05a71.25,71.25,0,0,0,4.12,14.63A.32.32,0,0,1,320.6,466.05Z" style="fill: rgb(38, 50, 56); transform-origin: 318.717px 458.572px;" id="el407no8ru35y" class="animable"></path><path d="M324.24,468.27c-3.18-4-5.34-9.9-3.93-15,.06-.19.34-.11.37.06A71,71,0,0,0,324.79,468,.32.32,0,0,1,324.24,468.27Z" style="fill: rgb(38, 50, 56); transform-origin: 322.332px 460.766px;" id="el7xkodo2sqzx" class="animable"></path><path d="M294.05,419.4c-3.48-4.6,3.67-10,7.16-5.41S297.54,424,294.05,419.4Z" style="fill: rgb(38, 50, 56); transform-origin: 297.632px 416.696px;" id="ell6utfek2utm" class="animable"></path><path d="M311.52,469.45c1.17-4.38.4-9.11.2-13.56a.63.63,0,0,0-.89-.49.13.13,0,0,0-.21,0A26.94,26.94,0,0,0,303,467.05c-.82,2.63-.51,6.52,2.79,7.29C308.88,475.06,310.84,472,311.52,469.45Zm-3.25,2.77c-4.76,3-4.4-3.64-3.72-5.56a27.69,27.69,0,0,1,1.62-3.6,80.75,80.75,0,0,1,4.31-6.92c0,2.19.12,4.36.17,6.55C310.7,465.31,310.9,470.57,308.27,472.22Z" style="fill: rgb(38, 50, 56); transform-origin: 307.385px 464.894px;" id="el7i9k6crmrey" class="animable"></path><path d="M296.94,442.81c-2.43,2.35-.68,5.84,1.37,7.68a27,27,0,0,0,12.57,6.08c.11,0,.16-.06.17-.15a.62.62,0,0,0,.51-.87c-2.12-3.92-3.9-8.37-7.16-11.51C302.49,442.2,299.24,440.58,296.94,442.81Zm10.19,7.46c1.09,1.9,2.08,3.84,3.24,5.7a78.69,78.69,0,0,1-7.26-3.71,28,28,0,0,1-3.25-2.24c-1.57-1.3-5.3-6.78.32-6.68C303.28,443.39,305.83,448,307.13,450.27Z" style="fill: rgb(38, 50, 56); transform-origin: 303.686px 449.149px;" id="elxc79fhvnxg" class="animable"></path><path d="M260.29,401.76S181.91,388,159.61,392.52c-31.1,6.31-36.81,43.08-13.74,56.78,29.21,17.36,146.9,14,146.9,14l-28.1-47.64s-43.24-9.1-82.45-7.78l78.41,12Z" style="fill: rgb(55, 71, 79); transform-origin: 212.272px 427.585px;" id="elejzzw8l3seh" class="animable"></path><path d="M266.54,418.73a.71.71,0,0,1-.06-.24c0-.07,0-.14-.05-.2l-.12-.46c-.09-.32-.21-.63-.33-.94s-.25-.6-.39-.9a8,8,0,0,0-.53-.84.24.24,0,0,0-.08-.06l-.05,0a.15.15,0,0,0-.07,0l-.07,0c-4.75-.88-37.06-5.51-41.87-6.06s-9.7-1-14.55-1.41c-9.69-.81-19.44-1.21-29.16-1l-2.73.09c-.2-.07-.4-.1-.6-.15-.47-.11-.93-.23-1.41-.32-.87-.17-1.76-.29-2.64-.43-1.84-.28-3.69-.48-5.52-.82-.11,0-.15.15,0,.17,1.84.41,3.65.94,5.49,1.35.53.11,1.06.23,1.6.33-3.57.19-7.13.47-10.69.79-.11,0-.11.18,0,.18,4.84-.29,9.72-.33,14.57-.24s9.63.18,14.44.46c9.73.56,19.45,1.43,29.14,2.44,5.44.57,38.38,5.38,43.84,5.61h.07c0,.12.09.25.15.37.15.3.3.59.46.88s.31.56.49.82l.27.4.14.2a1.43,1.43,0,0,1,.14.2A.09.09,0,1,0,266.54,418.73Z" style="fill: rgb(38, 50, 56); transform-origin: 214.617px 411.978px;" id="elavqvs7hkln8" class="animable"></path><path d="M282.64,460.4c-1.74-2.78-3.23-5.75-4.82-8.62l-4.8-8.64c-3.2-5.74-14.68-25-15.81-26.39a.11.11,0,0,0-.18.11c.54,1.5,7.7,14.28,9.35,17.13,3.3,5.69,6.76,11.28,10.18,16.91,1,1.6,2,3.19,3,4.79s2.05,3.16,3,4.8C282.54,460.59,282.7,460.5,282.64,460.4Z" style="fill: rgb(38, 50, 56); transform-origin: 269.84px 438.628px;" id="eli66lz11pnpb" class="animable"></path><path d="M256.88,421.55c-2.87-.68-5.81-1.13-8.7-1.68l-8.72-1.64q-8.73-1.62-17.48-3.09c-11.63-2-23.32-3.59-35.06-4.71-6.63-.64-13.28-1.06-19.92-1.55-.14,0-.14.22,0,.22,11.83.54,23.64,2.14,35.35,3.82s23.18,3.5,34.74,5.45l9.78,1.67c3.31.58,6.62,1.28,9.95,1.71A.1.1,0,0,0,256.88,421.55Z" style="fill: rgb(38, 50, 56); transform-origin: 211.924px 415.317px;" id="elv3z7x1cxbe" class="animable"></path><path d="M241.4,327c7.29,18.18,22.64,45.84,32.53,44.28,9-1.42,26.94-20.31,34.65-26.76S294.4,320.06,290,324.1c-6.77,6.26-16.7,17.12-18.68,16.78-2.48-.43-6.31-5.82-22.23-21.08C242.59,313.56,238.3,319.3,241.4,327Z" style="fill: rgb(255, 196, 192); transform-origin: 275.291px 344.246px;" id="els0qvfnbh2vl" class="animable"></path><path d="M298,314.83c3.78-2,8-4.53,12.4-5.08s8.95,4.79,9.18,6.46.05,12.35-4.38,13-2.89-7.77-3.19-8.67-.63-2-1.45-1.84-14.46,9.2-14.46,9.2Z" style="fill: rgb(255, 196, 192); transform-origin: 307.872px 319.478px;" id="elh82ruxkvfd" class="animable"></path><path d="M298.35,315.41c.26,0,11.46-6.4,15.9-6.94s8.94,4.78,9.18,6.46,0,12.35-4.39,13-2.89-7.77-3.19-8.66-.63-2.05-1.45-1.85-14.46,9.21-14.46,9.21Z" style="fill: rgb(255, 196, 192); transform-origin: 310.922px 318.199px;" id="el5jxjd6ndscg" class="animable"></path><path d="M317.46,327.56a5.33,5.33,0,0,1-1.11-2.52,9.08,9.08,0,0,1-.24-2.85,15.16,15.16,0,0,0,.19-2.51,4.88,4.88,0,0,0-.94-2.25c-.43-.57-1.05-.27-1.58,0a20.47,20.47,0,0,0-2.26,1.43c-.79.53-1.56,1.09-2.34,1.64a22.9,22.9,0,0,0-2.37,1.78c-.05,0,0,.15.07.11.74-.38,1.41-.87,2.11-1.32s1.57-1,2.36-1.52,1.47-1,2.22-1.42c.26-.16.78-.55,1.11-.52s.64.84.75,1.09a4.25,4.25,0,0,1,.19,2.42,12.2,12.2,0,0,0-.12,2.49,6.58,6.58,0,0,0,.51,2.28,9,9,0,0,0,1.33,1.76C317.4,327.74,317.53,327.63,317.46,327.56Z" style="fill: rgb(38, 50, 56); transform-origin: 312.135px 322.395px;" id="elo3rz8w842w" class="animable"></path><path d="M286,329s10.69-12.91,12.93-15.5c4.5-5.18,24.83-17.05,27.79-17.79s4.92,5.27-8.82,13.75c-7.24,4.46-8,9.08-7.5,11.51s3.48,6.67,7.59,6,5.93-7.09,9.62-8.29,2.17,6.09.07,10.48a25.5,25.5,0,0,1-9.87,10.22c-3.37,1.84-13.73,8.16-13.73,8.16Z" style="fill: rgb(255, 196, 192); transform-origin: 307.925px 321.594px;" id="el1biykpnvznw" class="animable"></path><path d="M322.64,323.33c-1.38,1.42-2.92,3.23-4.95,3.59s-3.66-.8-4.89-2.38a7.93,7.93,0,0,1-1.89-5.54,9.78,9.78,0,0,1,2.17-5,23.84,23.84,0,0,1,5.06-4.5c.09-.06,0-.18-.1-.12-1.78,1.11-7.33,4.36-7.78,9.74a8.09,8.09,0,0,0,2,5.64c1.15,1.52,2.7,2.91,4.72,2.79,2.47-.15,4.28-2.42,5.82-4.15C322.84,323.29,322.72,323.26,322.64,323.33Z" style="fill: rgb(38, 50, 56); transform-origin: 316.531px 318.46px;" id="elyl5ucvs8mol" class="animable"></path><path d="M285.73,327.45l22.39,25.9s-26.82,20.43-35.43,19S248.3,349,240.24,329s5.79-13.86,11.63-8.15,18.66,19,19.21,18.72S285.73,327.45,285.73,327.45Z" style="fill: rgb(255, 199, 39); transform-origin: 272.951px 343.845px;" id="elsuqbs5calyl" class="animable"></path><path d="M288.33,351.6a1.74,1.74,0,0,1-.82-.18,1.5,1.5,0,0,1-.83-1.2,2,2,0,0,0-1.47-1.63,2,2,0,0,0-1.07.05c-.31.11-.62.18-.93.3.33.05.65.05,1,.09a2.12,2.12,0,0,1,.83.14,1.49,1.49,0,0,1,.87,1.16A2,2,0,0,0,287.3,352a1.85,1.85,0,0,0,1.07,0,7.8,7.8,0,0,0,.93-.31C289,351.62,288.65,351.62,288.33,351.6Zm-17.69,3.87c-.1-.31-.18-.62-.31-.93-.05.33-.05.65-.08,1a1.67,1.67,0,0,1-.15.83,1.5,1.5,0,0,1-1.15.88,2,2,0,0,0-1.68,1.4,1.88,1.88,0,0,0,0,1.08c.11.31.18.62.3.93,0-.33,0-.65.09-1a1.75,1.75,0,0,1,.17-.81,1.45,1.45,0,0,1,1.2-.83,1.94,1.94,0,0,0,1.63-1.47A2,2,0,0,0,270.64,355.47ZM287.91,330a2,2,0,0,0-1.16,1.27,1.88,1.88,0,0,0,0,1.08c.1.31.18.62.3.93.05-.33.05-.65.08-1a1.68,1.68,0,0,1,.18-.82,1.43,1.43,0,0,1,1.14-.82Zm13.88,25.67c-.1-.31-.18-.62-.31-.93-.05.33-.05.65-.08,1a1.79,1.79,0,0,1-.14.83,1.48,1.48,0,0,1-1.16.87,2,2,0,0,0-1.68,1.41,1.77,1.77,0,0,0,0,1.07l.09.29.28-.19c0-.05,0-.1,0-.15A1.73,1.73,0,0,1,299,359a1.46,1.46,0,0,1,1.2-.83,2,2,0,0,0,1.64-1.47A2,2,0,0,0,301.79,355.64ZM255.25,336c-.11-.31-.19-.62-.31-.93-.05.33-.05.65-.09,1a1.79,1.79,0,0,1-.14.83,1.48,1.48,0,0,1-1.16.88,2,2,0,0,0-1.67,1.4,1.73,1.73,0,0,0,0,1.08c.1.31.17.62.3.93,0-.33,0-.65.08-1a1.68,1.68,0,0,1,.18-.82,1.43,1.43,0,0,1,1.2-.83,2,2,0,0,0,1.63-1.46A2.15,2.15,0,0,0,255.25,336Zm-8.75-19.09h0a1.54,1.54,0,0,1-.55-.29h-.07a1.44,1.44,0,0,0-.6-.28l0,0h0a1.85,1.85,0,0,0-1.47.23,1.81,1.81,0,0,0-.72.79c-.15.29-.31.56-.45.87.27-.2.51-.42.76-.63a1.8,1.8,0,0,1,.69-.49,1.48,1.48,0,0,1,1.43.2,2,2,0,0,0,2.08.25C247.19,317.3,246.85,317.1,246.5,316.91Zm10,8.51-.13.23c-.15.29-.31.57-.45.88.27-.19.5-.42.76-.64l.15-.14Zm16.62,15.7a1.71,1.71,0,0,1-.69.45,1.5,1.5,0,0,1-1.44-.26,2,2,0,0,0-2.2-.12,2.06,2.06,0,0,0-.71.8c-.15.28-.31.56-.45.87.27-.19.5-.42.76-.64a1.85,1.85,0,0,1,.69-.47,1.46,1.46,0,0,1,1.43.19,2,2,0,0,0,2.18.19,1.79,1.79,0,0,0,.74-.78c.15-.28.31-.56.45-.86A8.74,8.74,0,0,0,273.11,341.12Zm24-.48-.1.05a1.91,1.91,0,0,0-.71.8,7.89,7.89,0,0,0-.44.87c.26-.2.49-.43.74-.63a1.8,1.8,0,0,1,.69-.49l.28-.07Zm-11.62,25.84a1.64,1.64,0,0,1-.7.47,1.55,1.55,0,0,1-1.44-.26,1.93,1.93,0,0,0-2.19-.12,1.84,1.84,0,0,0-.71.79c-.16.29-.32.57-.45.87.27-.2.5-.42.75-.63a1.92,1.92,0,0,1,.69-.49,1.5,1.5,0,0,1,1.44.21,2,2,0,0,0,2.17.19,1.84,1.84,0,0,0,.74-.78,9.1,9.1,0,0,0,.45-.88C286,366.05,285.76,366.28,285.51,366.48Z" style="fill: rgb(255, 255, 255); transform-origin: 272.264px 342.254px;" id="el59mkt1crhh7" class="animable"></path><g id="el13c7oux6cy8"><path d="M289,366.2c-6.25,3.64-12.49,6.53-16,6.16l-.31,0C264.08,370.85,248.3,349,240.24,329a32.72,32.72,0,0,1-2.39-8.36c0-.1,0-.2,0-.3a4.19,4.19,0,0,1,0-.5,1.34,1.34,0,0,1,0-.2c0-.16,0-.31,0-.46Z" style="opacity: 0.1; transform-origin: 263.421px 345.786px;" class="animable"></path></g><path d="M297.47,352c-.72-.93-1.45-1.85-2.18-2.77-1.47-1.84-10.27-12.77-13.59-16-.09-.08-.22,0-.16.15,2.55,3.89,11.58,14.56,13.08,16.32.77.9,1.53,1.79,2.31,2.68s1.67,1.7,2.45,2.6c.07.08.22,0,.15-.11C298.81,353.94,298.2,352.92,297.47,352Z" style="fill: rgb(38, 50, 56); transform-origin: 290.536px 344.105px;" id="elks2i0gugt9m" class="animable"></path><path d="M202.74,400s34.48,5.6,55.22,5.73A25.67,25.67,0,0,0,275.79,399c.94-1.09-21.91-73.54-29.68-83.47-1.67-2.12-12.45-6.05-17.93.06C206.88,339.38,202.74,400,202.74,400Z" style="fill: rgb(255, 199, 39); transform-origin: 239.279px 359.027px;" id="el03rfexxu0t42" class="animable"></path><path d="M238.41,331.49a1.8,1.8,0,0,1-.82-.17,1.51,1.51,0,0,1-.82-1.2,2,2,0,0,0-1.47-1.63,1.83,1.83,0,0,0-1.07.05,7.8,7.8,0,0,0-.93.31c.32,0,.65,0,1,.07a1.83,1.83,0,0,1,.84.16,1.45,1.45,0,0,1,.87,1.14,2,2,0,0,0,1.41,1.68,1.94,1.94,0,0,0,1.07,0c.31-.11.62-.18.93-.31A8.09,8.09,0,0,0,238.41,331.49Zm31,45a1.29,1.29,0,0,0-.41-.16,2,2,0,0,0-1.07.05c-.31.11-.62.18-.93.3.33.06.65.06,1,.09a2.18,2.18,0,0,1,.84.14,1.52,1.52,0,0,1,.87,1.16,2,2,0,0,0,.6,1.2C270,378.4,269.73,377.48,269.43,376.53Zm-53.65-17.48a1.61,1.61,0,0,1-.81-.18,1.46,1.46,0,0,1-.83-1.19,1.93,1.93,0,0,0-2.53-1.59c-.31.11-.63.18-.93.31a7.77,7.77,0,0,0,1,.08,1.92,1.92,0,0,1,.83.15,1.46,1.46,0,0,1,.87,1.15,2,2,0,0,0,1.41,1.67,1.8,1.8,0,0,0,1.08,0,8.45,8.45,0,0,0,.93-.31C216.43,359.07,216.11,359.07,215.78,359.05Zm58,41a1.81,1.81,0,0,1-.83-.17,1.53,1.53,0,0,1-.82-1.2,2,2,0,0,0-1.47-1.64,2.12,2.12,0,0,0-1.07.06c-.31.1-.63.18-.93.3.32.05.66.05,1,.08a1.81,1.81,0,0,1,.83.15,1.46,1.46,0,0,1,.87,1.16,2,2,0,0,0,1.41,1.67,1.94,1.94,0,0,0,1.07,0l.57-.19h0l.16-.13ZM238,383.46a2,2,0,0,1-.83-.16,1.52,1.52,0,0,1-.83-1.2,2,2,0,0,0-1.46-1.64,2,2,0,0,0-1.07.06c-.31.1-.63.17-.93.3.32.05.65.05,1,.08a1.86,1.86,0,0,1,.84.15,1.47,1.47,0,0,1,.87,1.15,1.91,1.91,0,0,0,2.48,1.66c.31-.11.62-.19.93-.31C238.67,383.5,238.35,383.5,238,383.46ZM205.6,394.09a1.73,1.73,0,0,1-.81-.17,1.49,1.49,0,0,1-.84-1.19,1.92,1.92,0,0,0-.4-1c-.07.59-.14,1.15-.19,1.69a1.9,1.9,0,0,0,1.22,1,1.77,1.77,0,0,0,1.07,0c.31-.1.62-.18.93-.31C206.25,394.12,205.93,394.12,205.6,394.09Zm45.11-38.41a1.94,1.94,0,0,1-.82-.16,1.53,1.53,0,0,1-.83-1.2,2,2,0,0,0-1.46-1.65,2,2,0,0,0-1.08.06c-.31.11-.62.18-.93.3.33.06.65.06,1,.09a1.77,1.77,0,0,1,.83.14,1.46,1.46,0,0,1,.87,1.16,2,2,0,0,0,1.42,1.67,1.77,1.77,0,0,0,1.07,0c.31-.1.62-.18.93-.31C251.36,355.71,251,355.71,250.71,355.68Zm-16.14,6.2c-.1-.31-.18-.62-.3-.93-.05.33-.05.65-.08,1a1.83,1.83,0,0,1-.15.84,1.46,1.46,0,0,1-1.16.87,2,2,0,0,0-1.67,1.41,1.76,1.76,0,0,0,0,1.07c.1.31.18.62.3.93.05-.33.05-.65.08-1a1.63,1.63,0,0,1,.18-.82,1.49,1.49,0,0,1,1.2-.83,2,2,0,0,0,1.63-1.47A2,2,0,0,0,234.57,361.88ZM257,386.6c-.11-.31-.19-.62-.31-.93,0,.33,0,.65-.09,1a1.72,1.72,0,0,1-.14.82,1.48,1.48,0,0,1-1.16.88,2,2,0,0,0-1.67,1.41,1.77,1.77,0,0,0,0,1.07c.1.31.17.62.3.93.05-.33.05-.65.08-1a1.61,1.61,0,0,1,.18-.81,1.43,1.43,0,0,1,1.2-.83,2,2,0,0,0,1.63-1.47A2.12,2.12,0,0,0,257,386.6ZM255.25,336c-.11-.31-.19-.62-.31-.93-.05.33-.05.65-.09,1a1.79,1.79,0,0,1-.14.83,1.48,1.48,0,0,1-1.16.88,2,2,0,0,0-1.67,1.4,1.73,1.73,0,0,0,0,1.08c.1.31.17.62.3.93,0-.33,0-.65.08-1a1.68,1.68,0,0,1,.18-.82,1.43,1.43,0,0,1,1.2-.83,2,2,0,0,0,1.63-1.46A2.15,2.15,0,0,0,255.25,336Zm-37.37-1.91a8.37,8.37,0,0,0-.3-.93c-.05.33-.05.65-.08,1a1.71,1.71,0,0,1-.15.84,1.51,1.51,0,0,1-.93.82c-.12.28-.24.58-.35.87l.24,0a1.93,1.93,0,0,0,1.63-1.47A1.89,1.89,0,0,0,217.88,334.09Zm7.36,62.12a7.8,7.8,0,0,0-.31-.93c-.05.32-.05.65-.07,1a1.79,1.79,0,0,1-.16.83,1.48,1.48,0,0,1-1.14.88,1.91,1.91,0,0,0-1.66,2.48c.1.26.16.52.26.79h.05c0-.29,0-.57.07-.86a1.76,1.76,0,0,1,.18-.81,1.5,1.5,0,0,1,1.2-.83,1.94,1.94,0,0,0,1.63-1.47A1.88,1.88,0,0,0,225.24,396.21ZM247.06,317h0a1.48,1.48,0,0,1-1.12-.33,1.93,1.93,0,0,0-2.19-.11,1.81,1.81,0,0,0-.72.79c-.15.29-.31.56-.45.87.27-.2.51-.42.76-.63a1.8,1.8,0,0,1,.69-.49,1.48,1.48,0,0,1,1.43.2,2,2,0,0,0,2,.31ZM226,319a1.68,1.68,0,0,1-.69.45l-.17,0c-.19.25-.37.51-.55.77a1.85,1.85,0,0,0,1-.24,1.93,1.93,0,0,0,.74-.79c.15-.28.31-.55.44-.86C226.43,318.57,226.2,318.8,226,319Zm6.11,24.31a1.53,1.53,0,0,1-.69.45,1.51,1.51,0,0,1-1.45-.25,2,2,0,0,0-2.19-.12,1.9,1.9,0,0,0-.71.79c-.15.3-.31.57-.45.88.27-.2.5-.43.75-.64A1.77,1.77,0,0,1,228,344a1.47,1.47,0,0,1,1.44.2,2,2,0,0,0,2.18.19,1.85,1.85,0,0,0,.74-.78c.15-.29.31-.56.44-.87C232.54,342.88,232.31,343.11,232.06,343.32Zm-13.37,36.41a1.71,1.71,0,0,1-.69.46,1.52,1.52,0,0,1-1.44-.26,2,2,0,0,0-2.2-.12,2.08,2.08,0,0,0-.72.79c-.14.29-.31.57-.44.88.27-.2.5-.42.75-.64a1.91,1.91,0,0,1,.7-.48,1.47,1.47,0,0,1,1.42.2,2,2,0,0,0,2.18.19A1.87,1.87,0,0,0,219,380c.14-.29.31-.57.44-.87C219.17,379.29,219,379.52,218.69,379.73Zm36.38-8.42a1.61,1.61,0,0,1-.7.46,1.5,1.5,0,0,1-1.43-.25,1.9,1.9,0,0,0-2.91.67c-.15.29-.32.57-.44.87.27-.2.49-.43.74-.63a1.8,1.8,0,0,1,.69-.49,1.48,1.48,0,0,1,1.44.21,2,2,0,0,0,2.17.18,1.76,1.76,0,0,0,.74-.77,9.1,9.1,0,0,0,.45-.88C255.55,370.87,255.32,371.1,255.07,371.31ZM245,399.38a1.74,1.74,0,0,1-.7.46,1.52,1.52,0,0,1-1.44-.26,2,2,0,0,0-2.19-.12,1.93,1.93,0,0,0-.72.79c-.15.3-.31.57-.45.88.27-.2.51-.43.76-.63a1.8,1.8,0,0,1,.69-.49,1.49,1.49,0,0,1,1.43.2,2,2,0,0,0,2.18.2,1.86,1.86,0,0,0,.74-.79c.15-.29.31-.57.45-.87C245.43,399,245.2,399.18,245,399.38Z" style="fill: rgb(255, 255, 255); transform-origin: 238.955px 358.766px;" id="el84ak6q8nlz" class="animable"></path><path d="M225.27,338.38c6,18.73,27.17,52.36,38.15,54.25,12.71,2.19,53-17.26,60.41-24.49,2.95-2.88-17.62-21.65-21.5-19.57-16.29,8.75-31.06,14.15-33.48,13-3.73-1.83-20.4-19.72-31.15-30.77C224.2,316.89,222.58,330,225.27,338.38Z" style="fill: rgb(255, 196, 192); transform-origin: 274.148px 358.753px;" id="el5id16ar8kgl" class="animable"></path><polygon points="350.04 296.12 327.51 285.99 318.85 328.72 340.96 336.62 350.04 296.12" style="fill: rgb(255, 199, 39); transform-origin: 334.445px 311.305px;" id="el3oq4t9io5q6" class="animable"></polygon><g id="el6wlrsvgph8q"><polygon points="350.04 296.12 327.51 285.99 318.85 328.72 340.96 336.62 350.04 296.12" style="opacity: 0.1; transform-origin: 334.445px 311.305px;" class="animable"></polygon></g><path d="M347.46,296.46,328.33,288l-.53,1.38L321,323.75a39.77,39.77,0,0,1,4.86,3.9c1.94,1.92,7.69,8.21,13.09,7.7Z" style="fill: rgb(255, 255, 255); transform-origin: 334.23px 311.69px;" id="el03z4ugiaehup" class="animable"></path><path d="M347,298.67s-4.94-1.27-7.62-3.13-5.33-4-7.38-4.71-4.14-1.57-4.14-1.57l.47-1.22,19.13,8.42Z" style="fill: rgb(235, 235, 235); transform-origin: 337.66px 293.355px;" id="elvslqnyhcnwi" class="animable"></path><polygon points="311.63 343.02 343.09 337.21 350.04 296.12 316.8 299.76 311.63 343.02" style="fill: rgb(255, 199, 39); transform-origin: 330.835px 319.57px;" id="elnvhp79ujtb" class="animable"></polygon><path d="M322.83,368.87c1.78-.94,13.38-12.15,16.56-17.09A57.2,57.2,0,0,0,347.15,335c2.57-9.47,3.45-16.26,2.11-19.06-1.55-3.25-1.94-3.75-8.78,12.33-3.87,9.1-8.55,10.72-12.74,11.24A65,65,0,0,0,299,350.31S316,372.46,322.83,368.87Z" style="fill: rgb(255, 196, 192); transform-origin: 324.441px 341.69px;" id="el6r3wnlenlda" class="animable"></path><path d="M315.91,335a34.66,34.66,0,0,0-7.62,4.3,21.17,21.17,0,0,0-5.07,6.29c-.05.1.09.21.15.11,2.93-4.85,7.86-7.77,12.6-10.58C316,335,316,334.93,315.91,335Z" style="fill: rgb(38, 50, 56); transform-origin: 309.599px 340.356px;" id="eli53fo11awl" class="animable"></path><path d="M329.81,339.11c-4.3.68,8.49-10.07,8-15s-5.05-2.72-8.44.59c-11.74,11.48-21.69,12.41-27,22.55S329.81,339.11,329.81,339.11Z" style="fill: rgb(255, 196, 192); transform-origin: 319.806px 335.771px;" id="elz55h5yu6s6" class="animable"></path><path d="M269.6,360.22c3.49.43,26-9.29,26-9.29l17.64,29.92s-39.39,15.24-49.36,13.29S234.51,362,227.07,343.9c-7-17-2.63-29.38,12.55-12.88C239.62,331,267.78,360,269.6,360.22Z" style="fill: rgb(255, 199, 39); transform-origin: 268.531px 358.78px;" id="el40873lztha4" class="animable"></path><path d="M255.07,371.31a1.61,1.61,0,0,1-.7.46,1.5,1.5,0,0,1-1.43-.25,1.9,1.9,0,0,0-2.91.67c-.15.29-.32.57-.44.87.27-.2.49-.43.74-.63a1.8,1.8,0,0,1,.69-.49,1.48,1.48,0,0,1,1.44.21,2,2,0,0,0,2.17.18,1.76,1.76,0,0,0,.74-.77,9.1,9.1,0,0,0,.45-.88C255.55,370.87,255.32,371.1,255.07,371.31Zm30.44-4.83a1.64,1.64,0,0,1-.7.47,1.55,1.55,0,0,1-1.44-.26,1.93,1.93,0,0,0-2.19-.12,1.84,1.84,0,0,0-.71.79c-.16.29-.32.57-.45.87.27-.2.5-.42.75-.63a1.92,1.92,0,0,1,.69-.49,1.5,1.5,0,0,1,1.44.21,2,2,0,0,0,2.17.19,1.84,1.84,0,0,0,.74-.78,9.1,9.1,0,0,0,.45-.88C286,366.05,285.76,366.28,285.51,366.48Zm15.22,8.67a1.88,1.88,0,0,1-.7.47,1.54,1.54,0,0,1-1.44-.26,2,2,0,0,0-2.19-.13,1.91,1.91,0,0,0-.71.8,8,8,0,0,0-.45.87c.27-.2.5-.43.74-.63a1.83,1.83,0,0,1,.7-.49,1.46,1.46,0,0,1,1.43.21,2,2,0,0,0,2.17.18,1.79,1.79,0,0,0,.75-.77,9,9,0,0,0,.44-.88C301.2,374.72,301,374.94,300.73,375.15Zm-68.67-31.83a1.53,1.53,0,0,1-.69.45,1.51,1.51,0,0,1-1.45-.25,2,2,0,0,0-2.19-.12,1.72,1.72,0,0,0-.61.62l.18.43,0,0A1.77,1.77,0,0,1,228,344a1.47,1.47,0,0,1,1.44.2,2,2,0,0,0,2.18.19,1.85,1.85,0,0,0,.74-.78c.15-.29.31-.56.44-.87C232.54,342.88,232.31,343.11,232.06,343.32Zm54.52,41.2c-.1-.31-.19-.62-.31-.93,0,.33,0,.65-.08,1a1.61,1.61,0,0,1-.15.82,1.48,1.48,0,0,1-1.16.88,2,2,0,0,0-1.67,1.41,1.85,1.85,0,0,0,0,1.07c.1.31.18.62.3.93,0-.33,0-.65.08-1a1.61,1.61,0,0,1,.18-.81,1.45,1.45,0,0,1,1.2-.83,2,2,0,0,0,1.63-1.47A2.12,2.12,0,0,0,286.58,384.52Zm12.9-26.95a2,2,0,0,0-1.06,1.23,1.77,1.77,0,0,0,0,1.07c.1.31.17.62.3.93.05-.33.05-.65.08-1A1.73,1.73,0,0,1,299,359a1.48,1.48,0,0,1,.87-.76Zm-32.16.91a.88.88,0,0,0-.05.15,1.88,1.88,0,0,0,0,1.08c.11.31.18.62.3.93,0-.33,0-.65.09-1a1.67,1.67,0,0,1,.14-.73ZM257,386.6c-.11-.31-.19-.62-.31-.93,0,.33,0,.65-.09,1a1.72,1.72,0,0,1-.14.82,1.48,1.48,0,0,1-1.16.88h0l.65.64h0a2,2,0,0,0,1.13-1.33A2.12,2.12,0,0,0,257,386.6Zm-6.31-30.92a1.94,1.94,0,0,1-.82-.16,1.53,1.53,0,0,1-.83-1.2,2,2,0,0,0-1.46-1.65,2,2,0,0,0-1.08.06c-.31.11-.62.18-.93.3.33.06.65.06,1,.09a1.77,1.77,0,0,1,.83.14,1.46,1.46,0,0,1,.87,1.16,2,2,0,0,0,1.42,1.67,1.77,1.77,0,0,0,1.07,0c.31-.1.62-.18.93-.31C251.36,355.71,251,355.71,250.71,355.68Zm21.43,23.7a1.74,1.74,0,0,1-.82-.18,1.49,1.49,0,0,1-.84-1.19,2,2,0,0,0-1.46-1.64,2,2,0,0,0-1.07.05c-.31.11-.62.18-.93.3.33.06.65.06,1,.09a2.18,2.18,0,0,1,.84.14,1.52,1.52,0,0,1,.87,1.16,2,2,0,0,0,1.4,1.67,1.8,1.8,0,0,0,1.08,0,7.8,7.8,0,0,0,.93-.31C272.78,379.4,272.46,379.4,272.14,379.38Zm-33.73-47.89a1.8,1.8,0,0,1-.82-.17,1.51,1.51,0,0,1-.82-1.2,2,2,0,0,0-1.47-1.63,1.83,1.83,0,0,0-1.07.05,7.8,7.8,0,0,0-.93.31c.32,0,.65,0,1,.07a1.83,1.83,0,0,1,.84.16,1.45,1.45,0,0,1,.87,1.14,2,2,0,0,0,1.41,1.68,1.94,1.94,0,0,0,1.07,0c.31-.11.62-.18.93-.31A8.09,8.09,0,0,0,238.41,331.49Z" style="fill: rgb(255, 255, 255); transform-origin: 264.295px 359.066px;" id="els36yx0k4ud" class="animable"></path><path d="M293.62,387.78q-1.42.48-2.88.93" style="fill: rgb(235, 235, 235); transform-origin: 292.18px 388.245px;" id="ell8w8q9obuf" class="animable"></path><path d="M274.39,359.19c.87-.28,1.81-.59,2.79-.93" style="fill: rgb(235, 235, 235); transform-origin: 275.785px 358.725px;" id="eljyp6il7q95i" class="animable"></path><path d="M263.21,393.24c-8.55-3-21.39-22.92-23.87-26.84-1.59-2.51-3.08-5.08-4.55-7.66-2.95-5.17-5.73-10.43-8.42-15.73a.08.08,0,1,0-.14.07c1.65,4.15,3.52,8.23,5.57,12.22a46.42,46.42,0,0,1-3.29-4.48c0-.08-.18,0-.13.08a27,27,0,0,0,3.82,5.18q3.13,6,6.82,11.68c.7,1.08,15.76,25.63,25,26.8,3.21.41,13.7-1.85,15.87-2.69.1,0,.1-.15,0-.14C276.83,392.09,266.26,394.29,263.21,393.24Z" style="fill: rgb(38, 50, 56); transform-origin: 253.089px 368.78px;" id="elqt1453mq3nq" class="animable"></path><path d="M303.87,378.25c-.55-1-1.11-2.08-1.67-3.12-1.12-2.07-7.86-14.37-10.56-18.13a.11.11,0,0,0-.18.11c1.82,4.28,8.83,16.37,10,18.37l1.81,3c.61,1,1.34,2,2,3,.06.1.22,0,.17-.08C304.84,380.39,304.41,379.29,303.87,378.25Z" style="fill: rgb(38, 50, 56); transform-origin: 298.453px 369.247px;" id="eltiuirsc5svm" class="animable"></path><path d="M295.58,351c-1.92.36-18.85,6.9-22.59,8.32a8.22,8.22,0,0,1-2.81.8,4.25,4.25,0,0,1-2.53-1.39c-1.46-1.26-17.71-17.42-18.83-18.17-.42-.28-.72-.31-.29.21.75.9,16.59,16.88,18,18.12s2.56,2.37,4.44,2c.82-.15,23.68-8.78,24.77-9.43C296,351.32,295.89,350.92,295.58,351Z" style="fill: rgb(38, 50, 56); transform-origin: 272.103px 350.661px;" id="elaynl3szyj9m" class="animable"></path><path d="M243.65,326.53c-3.59-.07-11.6-6-12.77-11.42-.07-.38,1.43-3.62,3.08-7.65,1-2.44,2-5.19,2.81-7.77.15-.53,15,8.77,15,8.77a42.47,42.47,0,0,0-4.52,9.42A5.64,5.64,0,0,0,247,319a1.48,1.48,0,0,1,0,.19C246.72,321.26,247.5,326.61,243.65,326.53Z" style="fill: rgb(255, 196, 192); transform-origin: 241.324px 313.1px;" id="elq0t4zmu4rp" class="animable"></path><path d="M247,319s0,.11,0,.18a12.37,12.37,0,0,1-1.68-.41c-9.45-3.06-8.39-15.72-8-18.88,2.75,1.27,14.41,8.59,14.41,8.59a43,43,0,0,0-4.53,9.43A5.31,5.31,0,0,0,247,319Z" style="fill: rgb(38, 50, 56); transform-origin: 244.403px 309.535px;" id="elybzna6abs2" class="animable"></path><path d="M235.25,280.11c-2.5,5.73-1.35,23.26,2.43,27.57,5.49,6.26,15.46,7.95,21,1.13,5.4-6.61,3.49-29.43-.83-33.45C251.51,269.43,238.94,271.64,235.25,280.11Z" style="fill: rgb(255, 196, 192); transform-origin: 247.951px 292.615px;" id="elchpzse4ple4" class="animable"></path><path d="M251.13,292.54c0-.05-.09.06-.09.11.11,1.18,0,2.54-1,3a0,0,0,0,0,0,.07C251.34,295.45,251.42,293.64,251.13,292.54Z" style="fill: rgb(38, 50, 56); transform-origin: 250.654px 294.124px;" id="el9hxa6rhycnb" class="animable"></path><path d="M250,291.37c-1.91,0-1.83,3.79-.06,3.81S251.6,291.39,250,291.37Z" style="fill: rgb(38, 50, 56); transform-origin: 249.912px 293.275px;" id="elntfm2o8axn" class="animable"></path><path d="M257.66,292.36s.09.06.09.11c0,1.18.17,2.54,1.25,2.91,0,0,0,.07,0,.06C257.68,295.29,257.45,293.48,257.66,292.36Z" style="fill: rgb(38, 50, 56); transform-origin: 258.296px 293.9px;" id="elwitfmltpo3g" class="animable"></path><path d="M258.68,291.1c1.9-.18,2.14,3.63.38,3.8S257.09,291.26,258.68,291.1Z" style="fill: rgb(38, 50, 56); transform-origin: 258.928px 293px;" id="elrosi5b2y0d" class="animable"></path><path d="M248.45,289.65a13,13,0,0,0,1.47-.55,2.52,2.52,0,0,0,1.39-.85.81.81,0,0,0-.15-1,2,2,0,0,0-2-.16,2.91,2.91,0,0,0-1.66,1.3A.86.86,0,0,0,248.45,289.65Z" style="fill: rgb(38, 50, 56); transform-origin: 249.404px 288.284px;" id="el97787as1dip" class="animable"></path><path d="M260.12,289.15c-.53-.08-1-.23-1.53-.36a2.53,2.53,0,0,1-1.48-.67.8.8,0,0,1,0-1,2,2,0,0,1,2-.42,3,3,0,0,1,1.82,1.08A.86.86,0,0,1,260.12,289.15Z" style="fill: rgb(38, 50, 56); transform-origin: 259.019px 287.876px;" id="el5zmdbegmaa" class="animable"></path><path d="M250,303.32c.29.27.58.65,1,.67a3.09,3.09,0,0,0,1.26-.32,0,0,0,0,1,.06.06,1.59,1.59,0,0,1-1.49.67,1.25,1.25,0,0,1-.95-1C249.82,303.31,249.91,303.28,250,303.32Z" style="fill: rgb(38, 50, 56); transform-origin: 251.09px 303.857px;" id="el82va8yj880e" class="animable"></path><path d="M251.11,299.75a4,4,0,0,0,2.73,1.74,5,5,0,0,0,1.45,0,1.26,1.26,0,0,0,.28,0l.26,0a.3.3,0,0,0,.23-.27h0a.25.25,0,0,0,0-.12h0v-.1c0-.92-.11-2.3-.11-2.3.33.16,2.05.89,2,.41a60.49,60.49,0,0,0-1.83-12.15c0-.13-.23-.1-.21,0,.15,3.79,1,7.53,1.2,11.34a7.25,7.25,0,0,0-1.91-.53c-.13,0,.27,2.66.24,3.07a.18.18,0,0,1,0,.05,5.57,5.57,0,0,1-4.2-1.21C251.13,299.58,251,299.66,251.11,299.75Z" style="fill: rgb(38, 50, 56); transform-origin: 254.51px 294.208px;" id="el6b9622ge2wo" class="animable"></path><path d="M254.75,301.07a4.83,4.83,0,0,1-1.89,1.53,2.2,2.2,0,0,1-1.3.11c-.95-.23-1-1.1-.83-1.84a4.91,4.91,0,0,1,.39-1.15A6.22,6.22,0,0,0,254.75,301.07Z" style="fill: rgb(38, 50, 56); transform-origin: 252.702px 301.241px;" id="el6jnpbbyls8" class="animable"></path><path d="M252.86,302.6a2.2,2.2,0,0,1-1.3.11c-.95-.23-1-1.1-.83-1.84A2.2,2.2,0,0,1,252.86,302.6Z" style="fill: rgb(255, 155, 188); transform-origin: 251.757px 301.816px;" id="elxkktsqzp2f" class="animable"></path><path d="M235.36,296.18c3.25-.37,3.51-8.57,3.51-8.57s4.08-1.42,5.54-8.85c0,0,2.58,7.41,16.08,6.1a11.57,11.57,0,0,0-.81-7,48.62,48.62,0,0,1,3.22,7.34s3.49-11.12-6-15.29c-3.76-1.66-9.55-1.48-18.43,2.66,0,0-1.56-5.3-2.59-4.64s.81,5.63.81,5.63-3.83-1.29-4.5-.49,3.12,1.74,3.12,1.74a7.65,7.65,0,0,0-5.13,8.57C231,289.61,233.75,296.36,235.36,296.18Z" style="fill: rgb(38, 50, 56); transform-origin: 246.797px 282.028px;" id="ely919swupuqj" class="animable"></path><path d="M236.4,274.7a7,7,0,0,0-7.27,5.72,13.05,13.05,0,0,0,.68,5.84,24.09,24.09,0,0,0,2.72,5.56c.06.1.21,0,.14-.11a18.61,18.61,0,0,1-2.17-5.23,17.2,17.2,0,0,1-.73-5.37,6.71,6.71,0,0,1,6.63-6.21C236.51,274.9,236.51,274.71,236.4,274.7Z" style="fill: rgb(38, 50, 56); transform-origin: 232.766px 283.275px;" id="eln711bwcfoeh" class="animable"></path><path d="M249.28,267.82a27.36,27.36,0,0,0-6.65,2.27,20,20,0,0,0-5.56,3.68c-.08.08,0,.21.11.14a35.54,35.54,0,0,1,11.69-5.07c3.82-1,8.31-.88,11.13,2.27a.05.05,0,1,0,.08-.07C257.58,267.75,253.12,267.11,249.28,267.82Z" style="fill: rgb(38, 50, 56); transform-origin: 248.565px 270.745px;" id="el03jau5dxrkcv" class="animable"></path><path d="M247.82,298.7a5.57,5.57,0,1,1,6.18-6.27h0a5.58,5.58,0,0,1-4.8,6.26A4.91,4.91,0,0,1,247.82,298.7ZM249,288.37a4.39,4.39,0,0,0-1.2,0,4.83,4.83,0,1,0,1.2,0Z" style="fill: rgb(69, 90, 100); transform-origin: 248.478px 293.172px;" id="elrx8c1w989b" class="animable"></path><path d="M260.62,298.64c-2.12-.25-3.79-2.65-3.79-5.56a6.67,6.67,0,0,1,1.18-3.9,3.48,3.48,0,0,1,5.95,0,6.69,6.69,0,0,1,1.17,3.9c0,3.08-1.86,5.58-4.15,5.58Zm.65-10.37-.29,0a3,3,0,0,0-2.37,1.37,6,6,0,0,0-1,3.46c0,2.67,1.53,4.84,3.41,4.83s3.41-2.16,3.41-4.83a5.91,5.91,0,0,0-1-3.46A3,3,0,0,0,261.27,288.27Z" style="fill: rgb(69, 90, 100); transform-origin: 260.98px 293.083px;" id="ellrxed19r1e" class="animable"></path><path d="M253.81,293.07l-.48-.57c.85-.71,2.8-1.66,4.16-.2l-.54.5C255.73,291.5,253.89,293,253.81,293.07Z" style="fill: rgb(69, 90, 100); transform-origin: 255.41px 292.302px;" id="eljttps618gpo" class="animable"></path><path d="M229,294.51l-.66-.35c.16-.31,1.61-3,3.27-3.29s11.55.69,12,.73l-.07.74c-2.87-.27-10.59-.93-11.79-.74S229.35,293.76,229,294.51Z" style="fill: rgb(69, 90, 100); transform-origin: 235.975px 292.663px;" id="elj1vroq7aqeq" class="animable"></path><path d="M238,294.79s-3.36-5.93-6-4.78-.5,9.48,2.36,10.87a3,3,0,0,0,4.19-1.23Z" style="fill: rgb(255, 196, 192); transform-origin: 234.675px 295.576px;" id="el2jula0ujd9c" class="animable"></path><path d="M232.61,292.38c-.05,0-.06.06,0,.08,2,1,2.9,3.07,3.48,5.14a1.67,1.67,0,0,0-2.45-.69c-.05,0,0,.12,0,.12a1.84,1.84,0,0,1,2,.84,9.22,9.22,0,0,1,.82,1.74c.08.2.42.13.37-.09v0C237.13,296.82,235.43,292.92,232.61,292.38Z" style="fill: rgb(38, 50, 56); transform-origin: 234.716px 296.054px;" id="eld1r6t8gn4fc" class="animable"></path><path d="M230.56,318.84a49.7,49.7,0,0,0,5.44,6.42,12.48,12.48,0,0,0,6.56,3.41c2.38.36,5-.14,5.68-3.25.42-2,.28-3.74-.2-6.82,0-.14.1-.13.13,0,.84,4.05,1.13,9.46-1.9,10.63-3.39,1.3-7.93-.71-10.73-3.46a33.12,33.12,0,0,1-5.17-6.76C230.14,318.63,230.53,318.8,230.56,318.84Z" style="fill: rgb(38, 50, 56); transform-origin: 239.518px 324.067px;" id="el05vn205ylsge" class="animable"></path></g><defs>     <filter id="active" height="200%">         <feMorphology in="SourceAlpha" result="DILATED" operator="dilate" radius="2"></feMorphology>                <feFlood flood-color="#32DFEC" flood-opacity="1" result="PINK"></feFlood>        <feComposite in="PINK" in2="DILATED" operator="in" result="OUTLINE"></feComposite>        <feMerge>            <feMergeNode in="OUTLINE"></feMergeNode>            <feMergeNode in="SourceGraphic"></feMergeNode>        </feMerge>    </filter>    <filter id="hover" height="200%">        <feMorphology in="SourceAlpha" result="DILATED" operator="dilate" radius="2"></feMorphology>                <feFlood flood-color="#ff0000" flood-opacity="0.5" result="PINK"></feFlood>        <feComposite in="PINK" in2="DILATED" operator="in" result="OUTLINE"></feComposite>        <feMerge>            <feMergeNode in="OUTLINE"></feMergeNode>            <feMergeNode in="SourceGraphic"></feMergeNode>        </feMerge>            <feColorMatrix type="matrix" values="0   0   0   0   0                0   1   0   0   0                0   0   0   0   0                0   0   0   1   0 "></feColorMatrix>    </filter></defs></svg>
